<svg xmlns="http://www.w3.org/2000/svg" xmlns:xlink="http://www.w3.org/1999/xlink" width="500" zoomAndPan="magnify" viewBox="0 0 375 179.999997" height="240" preserveAspectRatio="xMidYMid meet" version="1.0"><defs><clipPath id="718dbaf5ac"><path d="M 95.070312 90 L 173.820312 90 L 173.820312 116.25 L 95.070312 116.25 Z M 95.070312 90 " clip-rule="nonzero"/></clipPath><clipPath id="fd542ed51c"><path d="M 36.96875 30.308594 L 153.21875 30.308594 L 153.21875 69.308594 L 36.96875 69.308594 Z M 36.96875 30.308594 " clip-rule="nonzero"/></clipPath><clipPath id="919f32d4b5"><path d="M 270.632812 14.167969 L 335.644531 14.167969 L 335.644531 177.445312 L 270.632812 177.445312 Z M 270.632812 14.167969 " clip-rule="nonzero"/></clipPath></defs><rect x="-37.5" width="450" fill="#ffffff" y="-18" height="215.999996" fill-opacity="1"/><rect x="-37.5" width="450" fill="#ffffff" y="-18" height="215.999996" fill-opacity="1"/><rect x="-37.5" width="450" fill="#ffffff" y="-18" height="215.999996" fill-opacity="1"/><g clip-path="url(#718dbaf5ac)"><path fill="#ffffff" d="M 169.488281 116.246094 L 99.402344 116.246094 C 97.015625 116.246094 95.070312 114.304688 95.070312 111.917969 L 95.070312 94.332031 C 95.070312 91.945312 97.015625 90.003906 99.402344 90.003906 L 169.472656 90.003906 C 171.863281 90.003906 173.808594 91.945312 173.808594 94.332031 L 173.808594 111.917969 C 173.820312 114.304688 171.878906 116.246094 169.488281 116.246094 Z M 169.488281 116.246094 " fill-opacity="1" fill-rule="nonzero"/></g><path fill="#4caf50" d="M 105.890625 92.8125 L 100.816406 92.8125 C 99.851562 92.8125 99.070312 93.59375 99.070312 94.558594 L 99.070312 98.605469 C 99.070312 99.570312 99.851562 100.351562 100.816406 100.351562 L 105.890625 100.351562 C 106.855469 100.351562 107.636719 99.570312 107.636719 98.605469 L 107.636719 94.558594 C 107.636719 93.59375 106.855469 92.8125 105.890625 92.8125 Z M 103.34375 99.082031 C 102.746094 99.082031 102.171875 98.902344 101.722656 98.605469 L 100.71875 98.734375 L 101.054688 97.992188 C 100.757812 97.601562 100.578125 97.128906 100.578125 96.625 C 100.578125 95.269531 101.808594 94.179688 103.332031 94.179688 C 104.855469 94.179688 106.085938 95.285156 106.085938 96.625 C 106.085938 97.964844 104.871094 99.082031 103.34375 99.082031 Z M 103.34375 99.082031 " fill-opacity="1" fill-rule="nonzero"/><path fill="#4caf50" d="M 131.789062 97.433594 L 110.710938 97.433594 C 110.238281 97.433594 109.859375 97.058594 109.859375 96.582031 C 109.859375 96.109375 110.238281 95.730469 110.710938 95.730469 L 131.789062 95.730469 C 132.265625 95.730469 132.644531 96.109375 132.644531 96.582031 C 132.644531 97.058594 132.25 97.433594 131.789062 97.433594 Z M 131.789062 97.433594 " fill-opacity="1" fill-rule="nonzero"/><path fill="#808080" d="M 116.902344 105.980469 L 99.109375 105.980469 C 98.636719 105.980469 98.257812 105.605469 98.257812 105.128906 C 98.257812 104.652344 98.636719 104.277344 99.109375 104.277344 L 116.890625 104.277344 C 117.363281 104.277344 117.742188 104.652344 117.742188 105.128906 C 117.757812 105.605469 117.363281 105.980469 116.902344 105.980469 Z M 116.902344 105.980469 " fill-opacity="1" fill-rule="nonzero"/><path fill="#808080" d="M 118.203125 109.5 L 99.109375 109.5 C 98.636719 109.5 98.257812 109.121094 98.257812 108.648438 C 98.257812 108.171875 98.636719 107.796875 99.109375 107.796875 L 118.191406 107.796875 C 118.664062 107.796875 119.042969 108.171875 119.042969 108.648438 C 119.042969 109.121094 118.664062 109.5 118.203125 109.5 Z M 118.203125 109.5 " fill-opacity="1" fill-rule="nonzero"/><path fill="#808080" d="M 130.589844 109.5 L 122.300781 109.5 C 121.824219 109.5 121.445312 109.121094 121.445312 108.648438 C 121.445312 108.171875 121.824219 107.796875 122.300781 107.796875 L 130.589844 107.796875 C 131.0625 107.796875 131.441406 108.171875 131.441406 108.648438 C 131.441406 109.121094 131.0625 109.5 130.589844 109.5 Z M 130.589844 109.5 " fill-opacity="1" fill-rule="nonzero"/><path fill="#808080" d="M 140.175781 105.980469 L 121.097656 105.980469 C 120.621094 105.980469 120.246094 105.605469 120.246094 105.128906 C 120.246094 104.652344 120.621094 104.277344 121.097656 104.277344 L 140.175781 104.277344 C 140.652344 104.277344 141.027344 104.652344 141.027344 105.128906 C 141.027344 105.605469 140.652344 105.980469 140.175781 105.980469 Z M 140.175781 105.980469 " fill-opacity="1" fill-rule="nonzero"/><g clip-path="url(#fd542ed51c)"><path fill="#ffffff" d="M 146.820312 69.296875 L 43.363281 69.296875 C 39.835938 69.296875 36.96875 66.414062 36.96875 62.867188 L 36.96875 36.75 C 36.96875 33.203125 39.835938 30.320312 43.363281 30.320312 L 146.800781 30.320312 C 150.328125 30.320312 153.195312 33.203125 153.195312 36.75 L 153.195312 62.867188 C 153.21875 66.414062 150.347656 69.296875 146.820312 69.296875 Z M 146.820312 69.296875 " fill-opacity="1" fill-rule="nonzero"/></g><path fill="#4caf50" d="M 52.9375 34.488281 L 45.449219 34.488281 C 44.023438 34.488281 42.867188 35.652344 42.867188 37.082031 L 42.867188 43.097656 C 42.867188 44.53125 44.023438 45.691406 45.449219 45.691406 L 52.9375 45.691406 C 54.363281 45.691406 55.515625 44.53125 55.515625 43.097656 L 55.515625 37.082031 C 55.515625 35.652344 54.363281 34.488281 52.9375 34.488281 Z M 49.183594 43.804688 C 48.296875 43.804688 47.449219 43.535156 46.789062 43.097656 L 45.304688 43.285156 L 45.796875 42.1875 C 45.363281 41.605469 45.097656 40.898438 45.097656 40.152344 C 45.097656 38.140625 46.914062 36.523438 49.160156 36.523438 C 51.410156 36.523438 53.226562 38.160156 53.226562 40.152344 C 53.226562 42.144531 51.429688 43.804688 49.183594 43.804688 Z M 49.183594 43.804688 " fill-opacity="1" fill-rule="nonzero"/><path fill="#4caf50" d="M 91.171875 41.355469 L 60.054688 41.355469 C 59.355469 41.355469 58.796875 40.796875 58.796875 40.089844 C 58.796875 39.386719 59.355469 38.824219 60.054688 38.824219 L 91.171875 38.824219 C 91.875 38.824219 92.429688 39.386719 92.429688 40.089844 C 92.429688 40.796875 91.851562 41.355469 91.171875 41.355469 Z M 91.171875 41.355469 " fill-opacity="1" fill-rule="nonzero"/><path fill="#808080" d="M 69.195312 54.050781 L 42.929688 54.050781 C 42.230469 54.050781 41.671875 53.492188 41.671875 52.785156 C 41.671875 52.082031 42.230469 51.519531 42.929688 51.519531 L 69.175781 51.519531 C 69.878906 51.519531 70.433594 52.082031 70.433594 52.785156 C 70.457031 53.492188 69.878906 54.050781 69.195312 54.050781 Z M 69.195312 54.050781 " fill-opacity="1" fill-rule="nonzero"/><path fill="#808080" d="M 71.117188 59.277344 L 42.929688 59.277344 C 42.230469 59.277344 41.671875 58.71875 41.671875 58.011719 C 41.671875 57.308594 42.230469 56.75 42.929688 56.75 L 71.09375 56.75 C 71.796875 56.75 72.355469 57.308594 72.355469 58.011719 C 72.355469 58.71875 71.796875 59.277344 71.117188 59.277344 Z M 71.117188 59.277344 " fill-opacity="1" fill-rule="nonzero"/><path fill="#808080" d="M 89.398438 59.277344 L 77.160156 59.277344 C 76.460938 59.277344 75.902344 58.71875 75.902344 58.011719 C 75.902344 57.308594 76.460938 56.75 77.160156 56.75 L 89.398438 56.75 C 90.097656 56.75 90.65625 57.308594 90.65625 58.011719 C 90.65625 58.71875 90.097656 59.277344 89.398438 59.277344 Z M 89.398438 59.277344 " fill-opacity="1" fill-rule="nonzero"/><path fill="#808080" d="M 103.550781 54.050781 L 75.386719 54.050781 C 74.683594 54.050781 74.128906 53.492188 74.128906 52.785156 C 74.128906 52.082031 74.683594 51.519531 75.386719 51.519531 L 103.550781 51.519531 C 104.253906 51.519531 104.8125 52.082031 104.8125 52.785156 C 104.8125 53.492188 104.253906 54.050781 103.550781 54.050781 Z M 103.550781 54.050781 " fill-opacity="1" fill-rule="nonzero"/><path fill="#8add8e" d="M 283.199219 65.683594 C 285.085938 66.019531 283.324219 67.8125 282.71875 68.191406 C 282.109375 68.570312 281.226562 68.023438 281.417969 67.199219 C 281.605469 66.378906 283.199219 65.683594 283.199219 65.683594 Z M 282.289062 64.484375 C 282.253906 64.230469 284.773438 63.601562 284.773438 63.601562 C 284.773438 63.601562 284.707031 62.054688 284.992188 61.769531 C 285.273438 61.484375 287.253906 60.917969 287.757812 60.980469 C 288.152344 61.03125 290.804688 62.558594 291.949219 63.230469 C 291.960938 63.207031 291.972656 63.191406 291.984375 63.179688 C 292.277344 62.855469 295.488281 62.878906 296.917969 62.910156 C 297.511719 60.320312 297.972656 57.976562 298.207031 56.128906 C 298.261719 55.691406 298.386719 55.265625 298.578125 54.867188 C 300.417969 51.050781 304.503906 47.195312 308.070312 44.328125 C 307.582031 41.917969 306.15625 39.09375 306.15625 39.09375 C 306.15625 39.09375 304.082031 40.675781 302.128906 40.925781 C 300.179688 41.179688 297.792969 35.304688 297.792969 35.304688 C 297.792969 35.304688 296.53125 35.367188 296.21875 35.179688 C 295.90625 34.988281 296.15625 30.695312 296.15625 30.695312 C 293.578125 26.082031 296.847656 21.410156 296.847656 21.410156 C 299.175781 17.242188 309.550781 19.957031 312.003906 23.054688 C 314.457031 26.148438 313.828125 30.316406 313.953125 32.589844 C 314.066406 34.628906 318.121094 38.140625 319.550781 41.710938 C 324.4375 45.535156 325.996094 54.546875 323.011719 67.265625 C 320.199219 79.226562 320.636719 92.132812 321.015625 97.703125 C 321.109375 99.132812 319.835938 100.265625 318.433594 100.003906 C 318.027344 99.925781 317.617188 99.847656 317.210938 99.765625 C 316.699219 102.769531 314.484375 106.273438 314.207031 106.929688 C 313.910156 107.621094 311.925781 121.277344 311.253906 128.960938 C 320.28125 137.804688 329.929688 156.785156 329.929688 157.328125 C 329.929688 157.398438 329.878906 157.542969 329.78125 157.734375 L 334.503906 164.253906 L 322.402344 175.460938 C 321.96875 175.863281 321.34375 176.03125 320.785156 175.832031 C 320.003906 175.554688 319.507812 174.613281 322.019531 171.625 C 326.15625 166.707031 327.453125 164.609375 327.453125 164.609375 L 325.125 162.734375 C 324.15625 163.292969 323.128906 163.597656 322.132812 163.394531 C 321.5625 163.277344 316.65625 157.28125 311.128906 150.332031 C 310.851562 157.554688 310.167969 165.035156 308.675781 168.285156 L 308.3125 174.808594 L 291.878906 175.796875 C 291.289062 175.835938 290.699219 175.566406 290.390625 175.058594 C 289.964844 174.347656 290.171875 173.300781 293.996094 172.585938 C 298.929688 171.660156 301.425781 170.972656 302.28125 170.71875 C 299.875 170.246094 297.980469 168.949219 297.980469 168.949219 C 297.980469 168.949219 293.703125 130.296875 293.074219 126.003906 C 292.535156 122.335938 292.640625 99.078125 292.683594 92.335938 C 292.585938 92.289062 292.488281 92.242188 292.390625 92.195312 C 291.886719 92.808594 291.289062 92.589844 290.976562 92.484375 C 290.835938 92.4375 290.933594 92.066406 291.132812 91.566406 C 290.4375 91.207031 289.769531 90.839844 289.132812 90.464844 C 289.132812 90.464844 292.277344 80.644531 294.898438 70.925781 C 293.832031 70.375 291.980469 69.382812 291.425781 69.160156 C 290.796875 69.574219 289.699219 69.84375 289.070312 69.539062 C 288.503906 67.957031 282.320312 64.738281 282.289062 64.484375 Z M 281.0625 64.738281 C 282.464844 64.738281 282.214844 65.683594 281.941406 66.128906 C 281.667969 66.570312 280.726562 66.652344 280.347656 66 C 279.972656 65.347656 281.0625 64.738281 281.0625 64.738281 Z M 284.519531 66.503906 C 284.519531 66.503906 283.199219 68.023438 283.324219 68.546875 C 283.453125 69.074219 286.363281 68.800781 286.300781 69.03125 C 286.238281 69.265625 286.34375 70.484375 287.226562 70.0625 C 288.105469 69.644531 288 68.652344 287.601562 68.398438 C 287.203125 68.148438 286.761719 68.378906 286.761719 68.378906 L 285.441406 67.453125 C 285.441406 67.453125 285.503906 66.316406 284.519531 66.503906 " fill-opacity="1" fill-rule="nonzero"/><g clip-path="url(#919f32d4b5)"><path fill="#4caf50" d="M 310.457031 16.195312 C 310.339844 16.117188 310.21875 16.039062 310.101562 15.957031 C 310.015625 15.894531 309.929688 15.84375 309.839844 15.792969 C 309.777344 15.753906 309.710938 15.714844 309.648438 15.675781 L 309.425781 15.535156 C 309.226562 15.417969 309.117188 15.234375 309.082031 14.96875 L 309.058594 14.765625 L 309.222656 14.648438 C 309.363281 14.539062 309.507812 14.488281 309.652344 14.488281 C 309.730469 14.488281 309.808594 14.503906 309.875 14.53125 L 310.160156 14.625 L 310.296875 14.675781 C 310.445312 14.726562 310.597656 14.777344 310.730469 14.855469 C 311.085938 15.027344 311.449219 15.207031 311.777344 15.4375 C 312.492188 15.878906 313.121094 16.410156 313.644531 17.003906 C 314.125 17.539062 314.5625 18.199219 314.980469 19.023438 C 315.179688 19.410156 315.34375 19.765625 315.488281 20.125 L 315.515625 20.203125 C 315.574219 20.367188 315.636719 20.535156 315.675781 20.707031 C 315.699219 20.808594 315.722656 20.914062 315.738281 21.011719 C 315.789062 21.242188 315.722656 21.457031 315.546875 21.644531 L 315.394531 21.8125 L 315.179688 21.734375 C 314.957031 21.65625 314.8125 21.527344 314.722656 21.328125 C 314.691406 21.25 314.652344 21.171875 314.613281 21.085938 L 314.386719 20.585938 C 314.242188 20.28125 314.082031 19.953125 313.890625 19.652344 C 313.53125 19.097656 313.085938 18.542969 312.566406 18.007812 L 312.421875 17.859375 C 311.976562 17.414062 311.515625 16.953125 310.984375 16.566406 C 310.824219 16.433594 310.644531 16.316406 310.457031 16.195312 Z M 275.976562 55.914062 C 276.023438 55.945312 276.074219 55.976562 276.121094 56.015625 C 276.210938 56.09375 276.296875 56.183594 276.367188 56.292969 C 276.4375 56.398438 276.488281 56.523438 276.515625 56.65625 C 276.53125 56.722656 276.535156 56.792969 276.546875 56.859375 L 276.554688 57.011719 C 276.5625 57.21875 276.59375 57.378906 276.632812 57.402344 C 276.664062 57.441406 276.78125 57.535156 276.933594 57.617188 C 277.117188 57.722656 277.351562 57.84375 277.527344 58.136719 C 277.617188 58.289062 277.648438 58.496094 277.613281 58.648438 C 277.582031 58.808594 277.519531 58.921875 277.460938 59.023438 C 277.433594 59.074219 277.402344 59.121094 277.375 59.167969 C 277.367188 59.183594 277.355469 59.195312 277.355469 59.199219 C 277.351562 59.203125 277.351562 59.230469 277.386719 59.28125 C 277.421875 59.332031 277.476562 59.390625 277.542969 59.449219 C 277.574219 59.480469 277.605469 59.511719 277.644531 59.539062 C 277.679688 59.570312 277.699219 59.621094 277.695312 59.769531 C 277.597656 59.882812 277.53125 59.894531 277.476562 59.878906 C 277.421875 59.863281 277.367188 59.847656 277.3125 59.824219 C 277.207031 59.777344 277.097656 59.71875 277.003906 59.617188 C 276.90625 59.519531 276.8125 59.347656 276.828125 59.152344 C 276.832031 59.054688 276.863281 58.96875 276.898438 58.898438 C 276.917969 58.855469 276.9375 58.8125 276.953125 58.773438 C 276.980469 58.695312 276.992188 58.621094 276.988281 58.574219 C 276.980469 58.53125 276.96875 58.53125 276.945312 58.511719 C 276.898438 58.46875 276.757812 58.390625 276.589844 58.320312 C 276.390625 58.21875 276.140625 58.105469 275.960938 57.792969 C 275.878906 57.640625 275.851562 57.472656 275.847656 57.34375 C 275.847656 57.210938 275.855469 57.105469 275.867188 57.003906 L 275.878906 56.859375 C 275.878906 56.824219 275.882812 56.792969 275.878906 56.757812 C 275.875 56.695312 275.867188 56.625 275.84375 56.554688 C 275.824219 56.480469 275.796875 56.402344 275.757812 56.328125 C 275.738281 56.289062 275.71875 56.25 275.695312 56.210938 C 275.667969 56.175781 275.667969 56.125 275.71875 55.964844 C 275.855469 55.867188 275.929688 55.878906 275.976562 55.914062 Z M 270.753906 60.296875 C 270.808594 60.277344 270.867188 60.261719 270.925781 60.25 C 271.042969 60.226562 271.167969 60.21875 271.296875 60.234375 C 271.421875 60.25 271.550781 60.289062 271.667969 60.351562 C 271.726562 60.382812 271.785156 60.421875 271.835938 60.457031 L 271.964844 60.546875 C 272.125 60.671875 272.277344 60.753906 272.320312 60.738281 C 272.363281 60.738281 272.5 60.710938 272.65625 60.640625 C 272.855469 60.566406 273.101562 60.449219 273.449219 60.507812 C 273.621094 60.539062 273.792969 60.65625 273.882812 60.773438 C 273.980469 60.894531 274.03125 61.007812 274.074219 61.117188 L 274.152344 61.320312 C 274.160156 61.332031 274.175781 61.34375 274.234375 61.351562 C 274.289062 61.355469 274.367188 61.351562 274.449219 61.339844 C 274.492188 61.335938 274.539062 61.328125 274.582031 61.316406 C 274.628906 61.308594 274.679688 61.320312 274.796875 61.417969 C 274.824219 61.566406 274.789062 61.625 274.746094 61.660156 C 274.699219 61.691406 274.652344 61.726562 274.601562 61.753906 C 274.496094 61.808594 274.378906 61.855469 274.234375 61.863281 C 274.097656 61.875 273.902344 61.824219 273.773438 61.691406 C 273.703125 61.628906 273.660156 61.546875 273.628906 61.484375 C 273.609375 61.445312 273.589844 61.40625 273.566406 61.367188 C 273.519531 61.296875 273.46875 61.238281 273.429688 61.210938 C 273.386719 61.183594 273.371094 61.1875 273.347656 61.195312 C 273.292969 61.207031 273.152344 61.261719 272.992188 61.351562 C 272.792969 61.445312 272.535156 61.574219 272.179688 61.503906 C 272.007812 61.46875 271.867188 61.378906 271.769531 61.300781 C 271.671875 61.222656 271.59375 61.148438 271.523438 61.078125 L 271.417969 60.976562 C 271.390625 60.953125 271.371094 60.929688 271.339844 60.910156 C 271.289062 60.871094 271.226562 60.835938 271.160156 60.804688 C 271.09375 60.773438 271.015625 60.746094 270.933594 60.730469 C 270.894531 60.714844 270.851562 60.710938 270.808594 60.703125 C 270.765625 60.703125 270.722656 60.671875 270.636719 60.527344 C 270.640625 60.359375 270.699219 60.308594 270.753906 60.296875 Z M 280.820312 57.109375 C 280.949219 57.289062 281.113281 57.496094 281.136719 57.855469 C 281.144531 58.027344 281.089844 58.195312 281.03125 58.3125 C 280.96875 58.433594 280.910156 58.523438 280.855469 58.605469 L 280.777344 58.730469 C 280.757812 58.757812 280.738281 58.78125 280.726562 58.8125 C 280.699219 58.871094 280.679688 58.933594 280.664062 59.007812 C 280.648438 59.078125 280.636719 59.15625 280.636719 59.242188 C 280.636719 59.285156 280.636719 59.332031 280.640625 59.375 C 280.648438 59.417969 280.625 59.464844 280.503906 59.582031 C 280.339844 59.605469 280.277344 59.5625 280.253906 59.511719 C 280.222656 59.460938 280.195312 59.410156 280.171875 59.351562 C 280.125 59.242188 280.089844 59.121094 280.082031 58.996094 C 280.070312 58.867188 280.078125 58.730469 280.117188 58.601562 C 280.132812 58.535156 280.164062 58.46875 280.1875 58.410156 L 280.253906 58.269531 C 280.296875 58.179688 280.335938 58.09375 280.355469 58.027344 C 280.375 57.960938 280.367188 57.929688 280.359375 57.902344 C 280.347656 57.855469 280.285156 57.710938 280.1875 57.570312 C 280.074219 57.386719 279.925781 57.179688 279.902344 56.835938 C 279.890625 56.664062 279.964844 56.457031 280.074219 56.335938 C 280.175781 56.214844 280.285156 56.144531 280.386719 56.085938 L 280.53125 56.003906 C 280.539062 55.996094 280.550781 55.992188 280.554688 55.992188 C 280.5625 55.996094 280.574219 55.972656 280.5625 55.910156 C 280.550781 55.847656 280.53125 55.769531 280.5 55.6875 C 280.488281 55.644531 280.46875 55.601562 280.453125 55.558594 C 280.433594 55.515625 280.4375 55.460938 280.511719 55.332031 C 280.652344 55.277344 280.71875 55.300781 280.757812 55.335938 C 280.796875 55.375 280.839844 55.414062 280.875 55.457031 C 280.949219 55.546875 281.015625 55.648438 281.054688 55.785156 C 281.097656 55.910156 281.109375 56.105469 281.003906 56.28125 C 280.949219 56.367188 280.882812 56.425781 280.8125 56.472656 C 280.777344 56.5 280.738281 56.527344 280.707031 56.554688 C 280.644531 56.609375 280.597656 56.667969 280.582031 56.707031 C 280.566406 56.746094 280.582031 56.746094 280.59375 56.773438 C 280.617188 56.832031 280.703125 56.972656 280.820312 57.109375 Z M 277.453125 61.746094 L 278.558594 61.398438 C 278.65625 61.351562 278.765625 61.359375 278.859375 61.410156 C 280.160156 62.160156 289.597656 67.613281 289.65625 68.042969 C 289.703125 68.382812 289.121094 68.886719 288.816406 69.125 C 288.707031 69.210938 288.558594 69.21875 288.4375 69.148438 L 287.867188 68.808594 C 287.820312 68.628906 287.726562 68.480469 287.601562 68.398438 C 287.394531 68.269531 287.175781 68.269531 287.011719 68.300781 L 285.441406 67.363281 C 285.433594 67.101562 285.335938 66.347656 284.519531 66.503906 C 284.519531 66.503906 284.449219 66.585938 284.347656 66.710938 L 284.035156 66.523438 C 284.101562 66.140625 283.90625 65.8125 283.199219 65.683594 C 283.199219 65.683594 283.070312 65.742188 282.886719 65.839844 L 282.152344 65.402344 C 282.128906 65.050781 281.867188 64.738281 281.0625 64.738281 C 281.0625 64.738281 281.058594 64.738281 281.046875 64.742188 L 277.480469 62.617188 C 277.332031 62.527344 277.277344 62.347656 277.34375 62.191406 L 277.277344 62.078125 C 277.308594 62 277.378906 61.78125 277.453125 61.746094 Z M 307.539062 36.90625 C 305.75 36.90625 304.296875 35.082031 304.296875 32.84375 C 304.296875 30.601562 305.75 28.777344 307.539062 28.777344 C 309.328125 28.777344 310.78125 30.601562 310.78125 32.84375 C 310.78125 35.082031 309.328125 36.90625 307.539062 36.90625 Z M 307.539062 37.496094 C 309.652344 37.496094 311.367188 35.40625 311.367188 32.84375 C 311.367188 30.277344 309.652344 28.1875 307.539062 28.1875 C 305.425781 28.1875 303.710938 30.277344 303.710938 32.84375 C 303.710938 35.40625 305.425781 37.496094 307.539062 37.496094 Z M 323.050781 169.945312 C 323.050781 169.945312 325.898438 168.707031 327.914062 169.269531 L 334.695312 163.585938 L 335.84375 165.175781 L 320.253906 177.445312 C 320.253906 177.445312 318.070312 175.878906 322.207031 170.957031 C 322.503906 170.605469 322.785156 170.269531 323.050781 169.945312 Z M 288.964844 175.96875 L 308.769531 176.378906 L 308.878906 174.414062 L 300.046875 174.503906 C 298.839844 172.789062 295.855469 171.941406 295.855469 171.941406 C 295.445312 172.019531 295.015625 172.101562 294.566406 172.1875 C 288.261719 173.367188 288.964844 175.96875 288.964844 175.96875 " fill-opacity="1" fill-rule="nonzero"/></g><path fill="#388e3c" d="M 315.296875 21.410156 C 315.136719 21.351562 315.078125 21.277344 315.039062 21.191406 C 315.003906 21.105469 314.964844 21.023438 314.925781 20.941406 L 314.699219 20.4375 C 314.539062 20.105469 314.375 19.777344 314.179688 19.464844 C 313.785156 18.847656 313.316406 18.28125 312.8125 17.765625 C 312.300781 17.25 311.796875 16.726562 311.203125 16.300781 C 310.921875 16.066406 310.605469 15.890625 310.304688 15.675781 C 310.152344 15.566406 309.988281 15.480469 309.832031 15.382812 L 309.597656 15.234375 C 309.515625 15.1875 309.449219 15.113281 309.425781 14.925781 C 309.574219 14.816406 309.675781 14.824219 309.765625 14.859375 L 310.039062 14.953125 C 310.222656 15.015625 310.410156 15.070312 310.578125 15.164062 C 310.925781 15.335938 311.277344 15.507812 311.597656 15.734375 C 312.257812 16.140625 312.871094 16.644531 313.386719 17.234375 C 313.910156 17.816406 314.324219 18.492188 314.671875 19.1875 C 314.851562 19.53125 315.019531 19.878906 315.164062 20.242188 C 315.226562 20.421875 315.296875 20.605469 315.339844 20.796875 C 315.367188 20.890625 315.382812 20.984375 315.402344 21.082031 C 315.421875 21.175781 315.414062 21.285156 315.296875 21.410156 Z M 323.039062 7.640625 C 320.085938 2.683594 311.933594 3.75 309.851562 6.011719 C 308.21875 7.789062 308.449219 12.53125 308.621094 14.488281 C 304.421875 13.699219 299.289062 15.65625 296.484375 20.953125 C 295.921875 22.019531 295.589844 22.925781 297.8125 23.421875 C 297.8125 23.421875 301.191406 24.640625 304.816406 26.277344 C 304.847656 26.027344 304.921875 25.789062 305.0625 25.578125 C 305.515625 24.886719 306.457031 23.847656 307.558594 24.925781 C 308.296875 25.644531 308.53125 26.917969 308.382812 28.007812 C 310.53125 29.148438 312.371094 30.34375 313.136719 31.402344 C 313.316406 31.648438 313.511719 31.761719 313.714844 31.652344 C 314.546875 31.210938 316.480469 26.769531 315.613281 22.074219 C 326.199219 23.054688 325.753906 12.199219 323.039062 7.640625 Z M 277.167969 62.289062 C 277.21875 62.148438 277.289062 61.964844 277.34375 61.871094 C 277.386719 61.796875 277.476562 61.777344 277.550781 61.820312 L 288.535156 68.609375 C 288.617188 68.660156 288.722656 68.660156 288.808594 68.605469 C 289.015625 68.46875 289.40625 68.207031 289.578125 68.058594 C 289.691406 67.960938 289.648438 68.148438 289.648438 68.148438 C 289.648438 68.148438 289.609375 68.371094 289.574219 68.578125 C 289.558594 68.660156 289.519531 68.734375 289.453125 68.789062 L 288.769531 69.378906 C 288.667969 69.46875 288.519531 69.480469 288.40625 69.410156 C 288.285156 69.339844 288.109375 69.238281 287.894531 69.105469 C 287.910156 68.800781 287.789062 68.519531 287.601562 68.398438 C 287.203125 68.148438 286.761719 68.378906 286.761719 68.378906 L 285.441406 67.453125 C 285.441406 67.453125 285.503906 66.316406 284.519531 66.503906 C 284.519531 66.503906 284.394531 66.652344 284.226562 66.863281 C 284.144531 66.816406 284.066406 66.765625 283.984375 66.71875 C 284.152344 66.253906 284.023438 65.832031 283.199219 65.683594 C 283.199219 65.683594 282.988281 65.777344 282.707031 65.933594 C 282.519531 65.816406 282.332031 65.703125 282.144531 65.585938 C 282.203125 65.167969 282.011719 64.738281 281.0625 64.738281 C 281.0625 64.738281 281 64.773438 280.914062 64.832031 C 279.207031 63.78125 277.753906 62.886719 277.269531 62.589844 C 277.167969 62.527344 277.125 62.402344 277.167969 62.289062 Z M 296.714844 30.09375 C 296.632812 29.714844 296.839844 29.351562 297.179688 29.277344 C 297.519531 29.203125 297.859375 29.445312 297.941406 29.824219 C 298.023438 30.199219 297.816406 30.5625 297.476562 30.640625 C 297.136719 30.714844 296.796875 30.46875 296.714844 30.09375 Z M 297.140625 34.300781 C 297.203125 34.269531 297.261719 34.242188 297.320312 34.207031 C 297.4375 34.128906 297.5625 34.042969 297.703125 34.003906 C 297.847656 33.953125 298.011719 33.980469 298.179688 34.023438 C 298.261719 34.046875 298.351562 34.078125 298.429688 34.136719 C 298.472656 34.171875 298.507812 34.210938 298.539062 34.25 L 298.574219 34.324219 C 298.589844 34.34375 298.585938 34.390625 298.480469 34.511719 C 298.351562 34.613281 298.324219 34.640625 298.3125 34.640625 C 298.300781 34.644531 298.289062 34.648438 298.277344 34.652344 L 298.21875 34.683594 C 298.179688 34.703125 298.152344 34.699219 298.109375 34.714844 C 298.027344 34.734375 297.9375 34.78125 297.835938 34.773438 C 297.734375 34.777344 297.613281 34.753906 297.492188 34.75 C 297.433594 34.753906 297.375 34.765625 297.316406 34.777344 C 297.289062 34.785156 297.257812 34.78125 297.222656 34.777344 L 297.171875 34.765625 C 297.152344 34.761719 297.125 34.730469 297.054688 34.609375 C 297.011719 34.472656 297.015625 34.433594 297.027344 34.414062 L 297.058594 34.367188 C 297.085938 34.339844 297.113281 34.316406 297.140625 34.300781 Z M 299.371094 36.160156 C 299.480469 36.101562 299.59375 36.039062 299.695312 35.96875 C 299.902344 35.820312 300.085938 35.648438 300.277344 35.5 C 300.457031 35.339844 300.667969 35.226562 300.855469 35.078125 L 301.121094 34.847656 C 301.167969 34.808594 301.222656 34.777344 301.265625 34.734375 L 301.339844 34.675781 C 301.363281 34.65625 301.410156 34.648438 301.570312 34.695312 C 301.695312 34.800781 301.707031 34.851562 301.695312 34.886719 L 301.667969 34.996094 C 301.648438 35.070312 301.621094 35.136719 301.585938 35.203125 C 301.527344 35.339844 301.429688 35.449219 301.34375 35.566406 C 301.160156 35.789062 300.964844 36.003906 300.71875 36.144531 C 300.480469 36.292969 300.210938 36.386719 299.953125 36.476562 C 299.824219 36.523438 299.703125 36.578125 299.574219 36.625 C 299.507812 36.648438 299.441406 36.660156 299.371094 36.671875 L 299.265625 36.679688 C 299.234375 36.683594 299.183594 36.660156 299.109375 36.539062 C 299.09375 36.390625 299.105469 36.347656 299.132812 36.324219 L 299.210938 36.261719 C 299.261719 36.222656 299.316406 36.1875 299.371094 36.160156 Z M 296.539062 27.921875 C 296.515625 27.925781 296.484375 27.894531 296.386719 27.769531 C 296.332031 27.613281 296.347656 27.5625 296.371094 27.546875 L 296.441406 27.480469 C 296.488281 27.441406 296.539062 27.402344 296.59375 27.375 C 296.699219 27.3125 296.816406 27.285156 296.929688 27.25 C 297.15625 27.191406 297.394531 27.148438 297.621094 27.195312 C 297.851562 27.226562 298.066406 27.328125 298.265625 27.421875 L 298.570312 27.542969 C 298.621094 27.566406 298.667969 27.597656 298.710938 27.632812 L 298.773438 27.691406 C 298.796875 27.710938 298.804688 27.753906 298.777344 27.894531 C 298.699219 28.015625 298.660156 28.042969 298.632812 28.042969 L 298.554688 28.046875 C 298.503906 28.042969 298.453125 28.039062 298.40625 28.027344 C 298.308594 28.007812 298.21875 27.980469 298.121094 27.96875 C 297.925781 27.960938 297.734375 27.976562 297.554688 27.976562 C 297.371094 27.984375 297.199219 27.941406 297.019531 27.9375 L 296.753906 27.9375 L 296.613281 27.929688 Z M 325.21875 162.394531 L 325.394531 162.265625 C 325.515625 162.191406 325.625 162.097656 325.738281 162.011719 C 325.972656 161.847656 326.191406 161.667969 326.40625 161.484375 C 326.832031 161.105469 327.214844 160.6875 327.601562 160.269531 C 327.984375 159.847656 328.371094 159.414062 328.714844 158.949219 C 328.882812 158.710938 329.035156 158.464844 329.1875 158.210938 C 329.261719 158.089844 329.335938 157.964844 329.417969 157.84375 L 329.542969 157.660156 C 329.582031 157.597656 329.644531 157.550781 329.804688 157.539062 C 329.902344 157.664062 329.90625 157.75 329.882812 157.824219 C 329.859375 157.894531 329.835938 157.96875 329.8125 158.039062 C 329.757812 158.183594 329.695312 158.324219 329.628906 158.457031 C 329.496094 158.730469 329.34375 158.988281 329.195312 159.253906 C 328.902344 159.785156 328.578125 160.308594 328.191406 160.785156 C 327.808594 161.269531 327.328125 161.664062 326.832031 162.03125 C 326.578125 162.203125 326.324219 162.378906 326.039062 162.507812 C 325.90625 162.582031 325.765625 162.644531 325.613281 162.691406 L 325.394531 162.765625 C 325.324219 162.792969 325.238281 162.792969 325.109375 162.675781 C 325.109375 162.496094 325.15625 162.429688 325.21875 162.394531 Z M 302.960938 170.667969 L 303.171875 170.660156 C 303.308594 170.660156 303.449219 170.65625 303.582031 170.640625 C 303.722656 170.628906 303.855469 170.613281 303.992188 170.609375 C 304.125 170.597656 304.261719 170.570312 304.394531 170.550781 C 304.925781 170.460938 305.4375 170.28125 305.941406 170.085938 C 306.441406 169.886719 306.945312 169.65625 307.414062 169.355469 C 307.644531 169.199219 307.859375 169.027344 308.070312 168.84375 L 308.394531 168.574219 L 308.558594 168.441406 C 308.613281 168.394531 308.683594 168.367188 308.839844 168.402344 C 308.90625 168.550781 308.882812 168.632812 308.839844 168.695312 C 308.796875 168.757812 308.757812 168.820312 308.710938 168.878906 C 308.621094 169 308.519531 169.109375 308.414062 169.214844 C 308.207031 169.425781 307.980469 169.617188 307.75 169.8125 C 307.296875 170.199219 306.800781 170.550781 306.246094 170.804688 C 305.695312 171.074219 305.082031 171.191406 304.476562 171.238281 C 304.324219 171.242188 304.171875 171.257812 304.019531 171.257812 C 303.867188 171.25 303.714844 171.234375 303.566406 171.21875 C 303.414062 171.214844 303.265625 171.175781 303.121094 171.136719 L 302.902344 171.074219 C 302.832031 171.058594 302.761719 171.011719 302.71875 170.84375 C 302.816406 170.695312 302.890625 170.667969 302.960938 170.667969 Z M 292.203125 64.667969 C 292.175781 65.171875 292.167969 65.675781 292.121094 66.175781 C 292.082031 66.675781 291.972656 67.171875 291.886719 67.664062 C 291.839844 67.914062 291.796875 68.160156 291.738281 68.40625 C 291.710938 68.527344 291.675781 68.652344 291.636719 68.773438 L 291.582031 68.957031 C 291.566406 69.019531 291.523438 69.074219 291.355469 69.117188 C 291.203125 69.035156 291.175781 68.96875 291.175781 68.902344 L 291.164062 68.714844 C 291.160156 68.585938 291.15625 68.457031 291.164062 68.332031 C 291.164062 68.082031 291.183594 67.828125 291.203125 67.578125 C 291.238281 67.074219 291.257812 66.574219 291.34375 66.078125 C 291.421875 65.582031 291.539062 65.089844 291.640625 64.597656 L 291.765625 63.851562 C 291.789062 63.730469 291.8125 63.605469 291.84375 63.484375 L 291.898438 63.300781 C 291.914062 63.238281 291.960938 63.179688 292.109375 63.136719 C 292.242188 63.21875 292.269531 63.285156 292.273438 63.347656 L 292.28125 63.539062 C 292.28125 63.667969 292.273438 63.789062 292.265625 63.917969 Z M 287.875 62.785156 C 287.757812 62.960938 287.597656 63.113281 287.40625 63.242188 C 287.3125 63.304688 287.203125 63.355469 287.089844 63.398438 C 287.035156 63.421875 286.976562 63.433594 286.914062 63.449219 C 286.875 63.457031 286.878906 63.464844 286.875 63.46875 C 286.871094 63.472656 286.867188 63.476562 286.863281 63.476562 C 286.832031 63.5 286.765625 63.617188 286.707031 63.777344 C 286.648438 63.9375 286.582031 64.125 286.484375 64.324219 C 286.378906 64.519531 286.214844 64.75 285.953125 64.886719 C 285.886719 64.917969 285.816406 64.953125 285.75 64.96875 C 285.679688 64.984375 285.613281 64.992188 285.542969 65.003906 C 285.410156 65.007812 285.28125 64.996094 285.164062 64.976562 C 284.929688 64.925781 284.738281 64.835938 284.546875 64.746094 L 284.523438 64.734375 C 284.414062 64.683594 284.347656 64.570312 284.359375 64.441406 C 284.371094 64.277344 284.398438 64.109375 284.429688 63.941406 C 284.445312 63.855469 284.460938 63.773438 284.480469 63.6875 C 284.492188 63.648438 284.496094 63.605469 284.515625 63.5625 C 284.542969 63.519531 284.59375 63.480469 284.707031 63.441406 C 284.820312 63.488281 284.871094 63.53125 284.894531 63.574219 C 284.910156 63.617188 284.910156 63.660156 284.921875 63.703125 C 284.9375 63.789062 284.949219 63.871094 284.957031 63.957031 C 284.96875 64.042969 284.972656 64.128906 284.976562 64.214844 C 285.238281 64.285156 285.484375 64.289062 285.578125 64.199219 C 285.644531 64.152344 285.71875 64.074219 285.800781 63.941406 C 285.882812 63.808594 285.953125 63.644531 286.058594 63.460938 C 286.109375 63.371094 286.171875 63.273438 286.253906 63.171875 C 286.300781 63.121094 286.34375 63.070312 286.402344 63.027344 C 286.46875 62.980469 286.53125 62.933594 286.609375 62.90625 C 286.648438 62.894531 286.691406 62.882812 286.734375 62.875 C 286.773438 62.867188 286.820312 62.855469 286.828125 62.855469 C 286.859375 62.851562 286.894531 62.855469 286.929688 62.847656 C 286.996094 62.835938 287.0625 62.808594 287.128906 62.773438 C 287.261719 62.707031 287.378906 62.59375 287.496094 62.476562 L 287.667969 62.289062 C 287.738281 62.226562 287.738281 62.140625 287.980469 62.148438 C 288.144531 62.332031 288.058594 62.410156 288.027344 62.507812 C 287.988281 62.605469 287.9375 62.699219 287.875 62.785156 Z M 296.28125 63.03125 C 296.398438 63.144531 296.414062 63.226562 296.40625 63.304688 L 296.375 63.539062 C 296.355469 63.691406 296.324219 63.84375 296.289062 63.996094 L 296.082031 64.902344 C 295.964844 65.515625 295.859375 66.128906 295.714844 66.730469 C 295.582031 67.339844 295.382812 67.925781 295.199219 68.519531 C 295.105469 68.816406 295.015625 69.113281 294.910156 69.40625 C 294.859375 69.554688 294.804688 69.699219 294.742188 69.84375 L 294.652344 70.058594 C 294.625 70.132812 294.570312 70.199219 294.394531 70.230469 C 294.257812 70.117188 294.242188 70.03125 294.253906 69.953125 L 294.28125 69.722656 C 294.300781 69.566406 294.320312 69.410156 294.351562 69.257812 C 294.402344 68.953125 294.46875 68.648438 294.535156 68.34375 C 294.664062 67.738281 294.78125 67.128906 294.960938 66.53125 C 295.132812 65.9375 295.339844 65.351562 295.535156 64.761719 L 295.800781 63.867188 C 295.847656 63.71875 295.894531 63.570312 295.953125 63.425781 L 296.039062 63.210938 C 296.070312 63.136719 296.125 63.070312 296.28125 63.03125 Z M 310.871094 147.664062 C 310.890625 147.269531 310.90625 146.878906 310.9375 146.488281 C 310.964844 145.699219 311.015625 144.917969 311.03125 144.128906 C 311.074219 142.554688 311.082031 140.980469 311.109375 139.402344 L 311.203125 134.664062 C 311.207031 133.875 311.195312 133.085938 311.191406 132.292969 C 311.1875 131.898438 311.1875 131.503906 311.195312 131.109375 L 311.207031 130.515625 C 311.210938 130.320312 311.242188 130.121094 311.375 129.917969 C 311.523438 130.109375 311.566406 130.308594 311.585938 130.503906 L 311.628906 131.097656 C 311.664062 131.492188 311.679688 131.886719 311.695312 132.285156 L 311.769531 134.65625 C 311.839844 136.238281 311.878906 137.824219 311.890625 139.40625 C 311.898438 140.992188 311.824219 142.578125 311.71875 144.164062 C 311.671875 144.953125 311.601562 145.746094 311.515625 146.539062 C 311.460938 146.933594 311.398438 147.328125 311.335938 147.722656 C 311.304688 147.917969 311.261719 148.113281 311.222656 148.308594 C 311.1875 148.503906 311.125 148.699219 310.9375 148.867188 C 310.804688 148.640625 310.796875 148.445312 310.820312 148.25 C 310.835938 148.054688 310.859375 147.859375 310.871094 147.664062 Z M 291.558594 91.972656 C 291.488281 91.972656 291.40625 91.957031 291.332031 91.929688 C 291.527344 91.496094 291.714844 91.058594 291.882812 90.613281 C 292.085938 90.078125 292.277344 89.535156 292.464844 88.992188 C 292.785156 88.65625 293.109375 88.324219 293.441406 88.003906 C 293.617188 87.832031 293.789062 87.65625 293.953125 87.476562 C 294.03125 87.394531 294.105469 87.308594 294.175781 87.222656 C 295.105469 87.824219 297.050781 89.09375 299 90.375 C 298.992188 90.390625 298.984375 90.40625 298.976562 90.421875 C 298.90625 90.601562 298.835938 90.785156 298.757812 90.960938 C 298.597656 91.3125 298.421875 91.660156 298.28125 92.019531 C 298.132812 92.378906 298.046875 92.753906 297.949219 93.128906 C 297.898438 93.316406 297.84375 93.503906 297.808594 93.695312 C 297.796875 93.75 297.792969 93.808594 297.78125 93.863281 C 297.324219 93.835938 296.871094 93.777344 296.429688 93.691406 C 295.714844 93.527344 295.019531 93.308594 294.390625 92.945312 L 293.933594 92.648438 C 293.789062 92.539062 293.65625 92.414062 293.511719 92.296875 C 293.441406 92.238281 293.371094 92.175781 293.296875 92.117188 L 293.109375 91.914062 L 292.9375 91.738281 C 292.949219 91.722656 292.960938 91.707031 292.976562 91.691406 L 293.203125 91.378906 C 293.277344 91.273438 293.371094 91.179688 293.285156 90.96875 C 293.027344 90.945312 292.953125 91.039062 292.859375 91.121094 L 292.582031 91.363281 C 292.398438 91.519531 292.226562 91.71875 292.066406 91.816406 C 291.902344 91.921875 291.734375 91.984375 291.558594 91.972656 Z M 298.648438 93.886719 C 298.554688 93.886719 298.457031 93.886719 298.359375 93.882812 C 298.449219 93.710938 298.523438 93.53125 298.597656 93.355469 C 298.652344 93.226562 298.710938 93.097656 298.765625 92.964844 C 298.894531 93.0625 299.023438 93.109375 299.160156 93.140625 C 299.351562 93.183594 299.542969 93.25 299.734375 93.3125 C 300.050781 93.417969 300.363281 93.523438 300.679688 93.632812 C 300.660156 93.636719 300.644531 93.636719 300.628906 93.636719 L 300.34375 93.675781 L 299.777344 93.761719 C 299.402344 93.820312 299.027344 93.875 298.648438 93.886719 Z M 290.5 92 C 290.445312 92.15625 290.503906 92.324219 290.640625 92.410156 C 290.804688 92.511719 290.933594 92.554688 291.09375 92.601562 C 291.242188 92.640625 291.402344 92.664062 291.566406 92.65625 C 291.890625 92.648438 292.210938 92.507812 292.441406 92.3125 C 292.527344 92.238281 292.597656 92.164062 292.660156 92.089844 L 292.734375 92.214844 L 292.898438 92.476562 C 292.964844 92.554688 293.035156 92.628906 293.101562 92.707031 C 293.242188 92.851562 293.371094 93.019531 293.527344 93.152344 L 294.019531 93.527344 C 294.699219 93.992188 295.476562 94.332031 296.285156 94.460938 C 297.09375 94.589844 297.910156 94.554688 298.695312 94.453125 C 298.894531 94.433594 299.089844 94.402344 299.289062 94.371094 C 299.484375 94.339844 299.679688 94.308594 299.871094 94.261719 C 300.066406 94.222656 300.257812 94.167969 300.445312 94.109375 L 300.722656 94.003906 C 300.820312 93.96875 300.890625 93.910156 300.957031 93.75 C 300.941406 93.734375 300.925781 93.726562 300.914062 93.714844 C 301.65625 93.976562 302.398438 94.25 303.136719 94.527344 C 304.640625 95.101562 306.132812 95.722656 307.640625 96.304688 L 312.160156 98.0625 L 314.398438 98.988281 C 314.773438 99.140625 315.148438 99.296875 315.527344 99.4375 L 316.09375 99.65625 C 316.28125 99.726562 316.480469 99.773438 316.722656 99.726562 C 316.59375 99.515625 316.421875 99.398438 316.242188 99.308594 L 315.699219 99.039062 C 315.335938 98.855469 314.96875 98.6875 314.597656 98.519531 L 312.378906 97.535156 C 310.90625 96.863281 309.425781 96.207031 307.929688 95.578125 C 306.429688 94.960938 304.910156 94.398438 303.371094 93.875 C 302.597656 93.621094 301.832031 93.355469 301.042969 93.144531 C 300.652344 93.023438 300.25 92.941406 299.851562 92.855469 C 299.652344 92.808594 299.453125 92.765625 299.246094 92.742188 C 299.121094 92.71875 298.992188 92.714844 298.859375 92.738281 C 298.921875 92.585938 298.976562 92.433594 299.019531 92.277344 C 299.132812 91.90625 299.207031 91.523438 299.296875 91.148438 C 299.335938 90.984375 299.386719 90.824219 299.4375 90.660156 C 300.257812 91.203125 301.070312 91.742188 301.789062 92.222656 C 301.851562 92.265625 301.929688 92.289062 302.003906 92.289062 C 302.039062 92.289062 302.070312 92.285156 302.101562 92.277344 C 309.289062 90.40625 321.171875 80.484375 321.695312 78.019531 C 325.199219 61.570312 321.914062 48.972656 321.878906 48.84375 C 321.824219 48.636719 321.609375 48.511719 321.402344 48.566406 C 321.191406 48.625 321.066406 48.839844 321.125 49.050781 C 321.15625 49.171875 324.390625 61.601562 320.929688 77.855469 C 320.464844 80.042969 309 89.5625 302.074219 91.46875 C 299.390625 89.675781 295.546875 87.175781 294.386719 86.421875 C 298.730469 80.503906 312.570312 71.980469 312.710938 71.894531 C 312.894531 71.78125 312.957031 71.539062 312.84375 71.351562 C 312.730469 71.167969 312.488281 71.109375 312.304688 71.222656 C 312.164062 71.308594 311.261719 71.863281 309.917969 72.738281 L 308.433594 54.222656 C 308.414062 54.003906 308.230469 53.847656 308.011719 53.859375 C 307.796875 53.878906 307.636719 54.066406 307.652344 54.285156 L 309.164062 73.105469 C 309.164062 73.144531 309.171875 73.183594 309.1875 73.214844 C 304.660156 76.203125 296.5 81.929688 293.503906 86.304688 C 293.445312 86.390625 293.421875 86.5 293.445312 86.605469 C 293.464844 86.710938 293.527344 86.800781 293.617188 86.859375 C 293.621094 86.859375 293.695312 86.910156 293.824219 86.992188 C 293.761719 87.042969 293.699219 87.089844 293.640625 87.136719 C 293.449219 87.292969 293.265625 87.457031 293.082031 87.621094 C 292.722656 87.957031 292.355469 88.277344 291.980469 88.59375 C 291.953125 88.617188 291.933594 88.640625 291.917969 88.671875 L 291.902344 88.703125 C 291.652344 89.238281 291.398438 89.773438 291.164062 90.316406 C 290.921875 90.855469 290.714844 91.410156 290.511719 91.964844 Z M 311.59375 42.042969 C 311.390625 42.171875 311.171875 42.277344 310.980469 42.425781 L 310.394531 42.855469 C 310.191406 42.992188 310.015625 43.160156 309.832031 43.324219 C 309.652344 43.488281 309.464844 43.648438 309.28125 43.808594 L 308.753906 44.324219 L 308.488281 44.582031 C 308.402344 44.671875 308.292969 44.742188 308.085938 44.738281 C 308.039062 44.542969 308.097656 44.421875 308.171875 44.320312 L 308.398438 44.011719 C 308.550781 43.808594 308.691406 43.59375 308.863281 43.402344 C 309.039062 43.21875 309.210938 43.03125 309.394531 42.847656 C 309.574219 42.667969 309.75 42.476562 309.957031 42.320312 C 310.722656 41.632812 311.605469 41.066406 312.558594 40.648438 C 313.527344 40.261719 314.5625 40.058594 315.589844 40.027344 C 316.105469 39.996094 316.625 40.023438 317.132812 40.082031 C 317.386719 40.125 317.644531 40.160156 317.890625 40.238281 C 318.015625 40.273438 318.136719 40.3125 318.257812 40.359375 C 318.378906 40.398438 318.496094 40.476562 318.566406 40.652344 C 318.402344 40.746094 318.28125 40.746094 318.160156 40.722656 C 318.039062 40.703125 317.921875 40.683594 317.800781 40.671875 C 317.558594 40.632812 317.316406 40.613281 317.078125 40.585938 C 316.59375 40.554688 316.109375 40.535156 315.628906 40.59375 C 314.667969 40.699219 313.742188 40.988281 312.863281 41.367188 C 312.4375 41.585938 312 41.785156 311.59375 42.042969 Z M 306.613281 38.359375 L 306.445312 38.527344 C 306.390625 38.582031 306.3125 38.621094 306.15625 38.589844 C 306.09375 38.4375 306.113281 38.355469 306.152344 38.289062 L 306.265625 38.09375 C 306.34375 37.960938 306.4375 37.84375 306.507812 37.710938 C 306.664062 37.453125 306.832031 37.207031 306.953125 36.929688 C 307.21875 36.394531 307.394531 35.824219 307.558594 35.257812 C 307.71875 34.691406 307.882812 34.121094 307.976562 33.53125 C 308.023438 33.238281 308.054688 32.941406 308.089844 32.644531 L 308.132812 32.199219 C 308.144531 32.121094 308.148438 32.046875 308.15625 31.972656 C 308.15625 31.898438 308.183594 31.824219 308.335938 31.726562 C 308.503906 31.78125 308.550781 31.863281 308.5625 31.941406 C 308.582031 32.019531 308.597656 32.097656 308.609375 32.175781 C 308.640625 32.335938 308.65625 32.492188 308.667969 32.652344 C 308.691406 32.972656 308.683594 33.292969 308.660156 33.609375 C 308.613281 34.246094 308.523438 34.890625 308.304688 35.496094 C 308.09375 36.101562 307.796875 36.675781 307.449219 37.210938 C 307.289062 37.484375 307.105469 37.742188 306.921875 38 C 306.832031 38.132812 306.722656 38.246094 306.613281 38.359375 Z M 315.089844 43.9375 C 315.046875 43.726562 314.835938 43.59375 314.625 43.636719 C 314.558594 43.652344 308.058594 45.160156 307.277344 51.425781 C 307.25 51.640625 307.402344 51.835938 307.617188 51.863281 C 307.632812 51.863281 307.648438 51.867188 307.664062 51.867188 C 307.859375 51.867188 308.027344 51.722656 308.050781 51.523438 C 308.765625 45.800781 314.734375 44.417969 314.792969 44.40625 C 315.003906 44.359375 315.140625 44.148438 315.089844 43.9375 " fill-opacity="1" fill-rule="nonzero"/><path fill="#4caf50" d="M 316.101562 4.609375 L 316.148438 4.582031 C 316.179688 4.566406 316.210938 4.554688 316.242188 4.554688 C 316.300781 4.546875 316.363281 4.546875 316.425781 4.539062 C 316.550781 4.511719 316.679688 4.476562 316.804688 4.484375 C 316.933594 4.480469 317.046875 4.546875 317.160156 4.601562 C 317.214844 4.632812 317.273438 4.65625 317.324219 4.699219 C 317.351562 4.722656 317.375 4.746094 317.398438 4.773438 L 317.433594 4.820312 C 317.445312 4.832031 317.449219 4.875 317.414062 5.03125 C 317.351562 5.179688 317.328125 5.210938 317.3125 5.214844 L 317.265625 5.234375 C 317.234375 5.246094 317.199219 5.257812 317.171875 5.265625 C 317.113281 5.277344 317.058594 5.273438 317 5.277344 C 316.890625 5.277344 316.777344 5.300781 316.675781 5.253906 C 316.570312 5.222656 316.472656 5.15625 316.367188 5.105469 C 316.316406 5.085938 316.261719 5.074219 316.207031 5.0625 C 316.179688 5.054688 316.152344 5.039062 316.128906 5.023438 L 316.089844 4.988281 C 316.074219 4.980469 316.0625 4.941406 316.050781 4.800781 C 316.070312 4.660156 316.085938 4.621094 316.101562 4.609375 Z M 318.292969 5.304688 C 318.339844 5.480469 318.398438 5.527344 318.464844 5.550781 L 318.65625 5.625 C 318.785156 5.664062 318.910156 5.714844 319.03125 5.773438 C 319.15625 5.828125 319.273438 5.886719 319.398438 5.929688 L 319.746094 6.121094 C 320.207031 6.382812 320.621094 6.710938 321.023438 7.058594 C 321.421875 7.410156 321.816406 7.78125 322.15625 8.210938 C 322.324219 8.429688 322.472656 8.660156 322.613281 8.894531 L 322.832031 9.242188 L 322.945312 9.417969 C 322.984375 9.476562 323.042969 9.523438 323.199219 9.535156 C 323.304688 9.417969 323.3125 9.335938 323.292969 9.265625 C 323.269531 9.195312 323.253906 9.121094 323.226562 9.050781 C 323.179688 8.914062 323.121094 8.777344 323.054688 8.648438 C 322.925781 8.386719 322.773438 8.136719 322.625 7.886719 C 322.324219 7.386719 321.980469 6.898438 321.550781 6.480469 C 321.132812 6.050781 320.597656 5.746094 320.050781 5.5 L 319.636719 5.332031 C 319.492188 5.289062 319.347656 5.253906 319.203125 5.21875 C 319.058594 5.175781 318.910156 5.164062 318.761719 5.15625 L 318.539062 5.144531 C 318.464844 5.136719 318.386719 5.15625 318.292969 5.304688 " fill-opacity="1" fill-rule="nonzero"/><path fill="#ffffff" d="M 278.78125 62.449219 L 286.753906 67.328125 L 287.757812 66.742188 L 279.960938 62.164062 L 278.78125 62.449219 " fill-opacity="1" fill-rule="nonzero"/></svg>