<svg xmlns="http://www.w3.org/2000/svg" xmlns:xlink="http://www.w3.org/1999/xlink" width="670" zoomAndPan="magnify" viewBox="0 0 502.5 179.999997" height="240" preserveAspectRatio="xMidYMid meet" version="1.0"><defs><clipPath id="0ddbec67a4"><path d="M 0 0.0898438 L 502 0.0898438 L 502 179.910156 L 0 179.910156 Z M 0 0.0898438 " clip-rule="nonzero"/></clipPath><clipPath id="4b445cca75"><path d="M 144.714844 90.089844 L 209.964844 90.089844 L 209.964844 111.839844 L 144.714844 111.839844 Z M 144.714844 90.089844 " clip-rule="nonzero"/></clipPath><clipPath id="f3e24eacf3"><path d="M 107.617188 44.925781 L 198.367188 44.925781 L 198.367188 74.925781 L 107.617188 74.925781 Z M 107.617188 44.925781 " clip-rule="nonzero"/></clipPath><clipPath id="b6c63d5030"><path d="M 464.253906 45.78125 L 502 45.78125 L 502 141.082031 L 464.253906 141.082031 Z M 464.253906 45.78125 " clip-rule="nonzero"/></clipPath><clipPath id="98d43b4ccf"><path d="M 468 39.082031 L 499 39.082031 L 499 138 L 468 138 Z M 468 39.082031 " clip-rule="nonzero"/></clipPath></defs><g clip-path="url(#0ddbec67a4)"><path fill="#ffffff" d="M 0 0.0898438 L 502.5 0.0898438 L 502.5 187.589844 L 0 187.589844 Z M 0 0.0898438 " fill-opacity="1" fill-rule="nonzero"/><path fill="#ffffff" d="M 0 0.0898438 L 502.5 0.0898438 L 502.5 180.089844 L 0 180.089844 Z M 0 0.0898438 " fill-opacity="1" fill-rule="nonzero"/><path fill="#ffffff" d="M 0 0.0898438 L 502.5 0.0898438 L 502.5 180.089844 L 0 180.089844 Z M 0 0.0898438 " fill-opacity="1" fill-rule="nonzero"/></g><g clip-path="url(#4b445cca75)"><path fill="#ffffff" d="M 206.375 111.835938 L 148.304688 111.835938 C 146.324219 111.835938 144.714844 110.226562 144.714844 108.25 L 144.714844 93.679688 C 144.714844 91.703125 146.324219 90.09375 148.304688 90.09375 L 206.363281 90.09375 C 208.34375 90.09375 209.953125 91.703125 209.953125 93.679688 L 209.953125 108.25 C 209.964844 110.226562 208.355469 111.835938 206.375 111.835938 Z M 206.375 111.835938 " fill-opacity="1" fill-rule="nonzero"/></g><path fill="#4caf50" d="M 153.679688 92.417969 L 149.476562 92.417969 C 148.675781 92.417969 148.027344 93.066406 148.027344 93.867188 L 148.027344 97.222656 C 148.027344 98.019531 148.675781 98.667969 149.476562 98.667969 L 153.679688 98.667969 C 154.476562 98.667969 155.125 98.019531 155.125 97.222656 L 155.125 93.867188 C 155.125 93.066406 154.476562 92.417969 153.679688 92.417969 Z M 151.570312 97.613281 C 151.074219 97.613281 150.597656 97.464844 150.226562 97.222656 L 149.394531 97.324219 L 149.671875 96.710938 C 149.429688 96.386719 149.277344 95.996094 149.277344 95.578125 C 149.277344 94.457031 150.296875 93.554688 151.558594 93.554688 C 152.820312 93.554688 153.839844 94.46875 153.839844 95.578125 C 153.839844 96.6875 152.832031 97.613281 151.570312 97.613281 Z M 151.570312 97.613281 " fill-opacity="1" fill-rule="nonzero"/><path fill="#4caf50" d="M 175.140625 96.25 L 157.675781 96.25 C 157.28125 96.25 156.96875 95.9375 156.96875 95.542969 C 156.96875 95.148438 157.28125 94.835938 157.675781 94.835938 L 175.140625 94.835938 C 175.535156 94.835938 175.847656 95.148438 175.847656 95.542969 C 175.847656 95.9375 175.523438 96.25 175.140625 96.25 Z M 175.140625 96.25 " fill-opacity="1" fill-rule="nonzero"/><path fill="#808080" d="M 162.804688 103.332031 L 148.0625 103.332031 C 147.667969 103.332031 147.355469 103.019531 147.355469 102.625 C 147.355469 102.230469 147.667969 101.917969 148.0625 101.917969 L 162.792969 101.917969 C 163.1875 101.917969 163.5 102.230469 163.5 102.625 C 163.511719 103.019531 163.1875 103.332031 162.804688 103.332031 Z M 162.804688 103.332031 " fill-opacity="1" fill-rule="nonzero"/><path fill="#808080" d="M 163.882812 106.246094 L 148.0625 106.246094 C 147.667969 106.246094 147.355469 105.933594 147.355469 105.539062 C 147.355469 105.148438 147.667969 104.835938 148.0625 104.835938 L 163.871094 104.835938 C 164.265625 104.835938 164.578125 105.148438 164.578125 105.539062 C 164.578125 105.933594 164.265625 106.246094 163.882812 106.246094 Z M 163.882812 106.246094 " fill-opacity="1" fill-rule="nonzero"/><path fill="#808080" d="M 174.144531 106.246094 L 167.277344 106.246094 C 166.882812 106.246094 166.570312 105.933594 166.570312 105.539062 C 166.570312 105.148438 166.882812 104.835938 167.277344 104.835938 L 174.144531 104.835938 C 174.539062 104.835938 174.851562 105.148438 174.851562 105.539062 C 174.851562 105.933594 174.539062 106.246094 174.144531 106.246094 Z M 174.144531 106.246094 " fill-opacity="1" fill-rule="nonzero"/><path fill="#808080" d="M 182.089844 103.332031 L 166.28125 103.332031 C 165.886719 103.332031 165.574219 103.019531 165.574219 102.625 C 165.574219 102.230469 165.886719 101.917969 166.28125 101.917969 L 182.089844 101.917969 C 182.480469 101.917969 182.792969 102.230469 182.792969 102.625 C 182.792969 103.019531 182.480469 103.332031 182.089844 103.332031 Z M 182.089844 103.332031 " fill-opacity="1" fill-rule="nonzero"/><g clip-path="url(#f3e24eacf3)"><path fill="#ffffff" d="M 193.371094 74.914062 L 112.609375 74.914062 C 109.855469 74.914062 107.617188 72.699219 107.617188 69.96875 L 107.617188 49.878906 C 107.617188 47.152344 109.855469 44.933594 112.609375 44.933594 L 193.355469 44.933594 C 196.109375 44.933594 198.351562 47.152344 198.351562 49.878906 L 198.351562 69.96875 C 198.367188 72.699219 196.125 74.914062 193.371094 74.914062 Z M 193.371094 74.914062 " fill-opacity="1" fill-rule="nonzero"/></g><path fill="#4caf50" d="M 120.082031 48.140625 L 114.234375 48.140625 C 113.125 48.140625 112.222656 49.035156 112.222656 50.136719 L 112.222656 54.761719 C 112.222656 55.863281 113.125 56.757812 114.234375 56.757812 L 120.082031 56.757812 C 121.195312 56.757812 122.097656 55.863281 122.097656 54.761719 L 122.097656 50.136719 C 122.097656 49.035156 121.195312 48.140625 120.082031 48.140625 Z M 117.152344 55.304688 C 116.457031 55.304688 115.796875 55.097656 115.28125 54.761719 L 114.125 54.90625 L 114.511719 54.0625 C 114.171875 53.613281 113.960938 53.070312 113.960938 52.496094 C 113.960938 50.949219 115.378906 49.703125 117.136719 49.703125 C 118.890625 49.703125 120.308594 50.964844 120.308594 52.496094 C 120.308594 54.027344 118.90625 55.304688 117.152344 55.304688 Z M 117.152344 55.304688 " fill-opacity="1" fill-rule="nonzero"/><path fill="#4caf50" d="M 149.929688 53.421875 L 125.640625 53.421875 C 125.09375 53.421875 124.65625 52.992188 124.65625 52.449219 C 124.65625 51.90625 125.09375 51.476562 125.640625 51.476562 L 149.929688 51.476562 C 150.476562 51.476562 150.914062 51.90625 150.914062 52.449219 C 150.914062 52.992188 150.460938 53.421875 149.929688 53.421875 Z M 149.929688 53.421875 " fill-opacity="1" fill-rule="nonzero"/><path fill="#808080" d="M 132.777344 63.1875 L 112.269531 63.1875 C 111.722656 63.1875 111.289062 62.757812 111.289062 62.214844 C 111.289062 61.671875 111.722656 61.242188 112.269531 61.242188 L 132.757812 61.242188 C 133.308594 61.242188 133.742188 61.671875 133.742188 62.214844 C 133.757812 62.757812 133.308594 63.1875 132.777344 63.1875 Z M 132.777344 63.1875 " fill-opacity="1" fill-rule="nonzero"/><path fill="#808080" d="M 134.273438 67.207031 L 112.269531 67.207031 C 111.722656 67.207031 111.289062 66.777344 111.289062 66.234375 C 111.289062 65.691406 111.722656 65.261719 112.269531 65.261719 L 134.257812 65.261719 C 134.804688 65.261719 135.242188 65.691406 135.242188 66.234375 C 135.242188 66.777344 134.804688 67.207031 134.273438 67.207031 Z M 134.273438 67.207031 " fill-opacity="1" fill-rule="nonzero"/><path fill="#808080" d="M 148.546875 67.207031 L 138.992188 67.207031 C 138.445312 67.207031 138.011719 66.777344 138.011719 66.234375 C 138.011719 65.691406 138.445312 65.261719 138.992188 65.261719 L 148.546875 65.261719 C 149.09375 65.261719 149.527344 65.691406 149.527344 66.234375 C 149.527344 66.777344 149.09375 67.207031 148.546875 67.207031 Z M 148.546875 67.207031 " fill-opacity="1" fill-rule="nonzero"/><path fill="#808080" d="M 159.59375 63.1875 L 137.609375 63.1875 C 137.058594 63.1875 136.625 62.757812 136.625 62.214844 C 136.625 61.671875 137.058594 61.242188 137.609375 61.242188 L 159.59375 61.242188 C 160.140625 61.242188 160.578125 61.671875 160.578125 62.214844 C 160.578125 62.757812 160.140625 63.1875 159.59375 63.1875 Z M 159.59375 63.1875 " fill-opacity="1" fill-rule="nonzero"/><path fill="#8add8e" d="M 471.621094 75.847656 C 472.726562 76.046875 471.695312 77.089844 471.335938 77.3125 C 470.980469 77.53125 470.464844 77.214844 470.574219 76.734375 C 470.6875 76.253906 471.621094 75.847656 471.621094 75.847656 Z M 471.085938 75.148438 C 471.066406 75 472.542969 74.632812 472.542969 74.632812 C 472.542969 74.632812 472.503906 73.730469 472.671875 73.5625 C 472.835938 73.398438 474 73.066406 474.292969 73.101562 C 474.523438 73.132812 476.078125 74.023438 476.75 74.414062 C 476.757812 74.402344 476.761719 74.394531 476.769531 74.386719 C 476.941406 74.195312 478.824219 74.210938 479.664062 74.230469 C 480.011719 72.714844 480.28125 71.347656 480.417969 70.269531 C 480.449219 70.015625 480.523438 69.769531 480.636719 69.535156 C 481.714844 67.304688 484.109375 65.054688 486.199219 63.382812 C 485.914062 61.976562 485.078125 60.328125 485.078125 60.328125 C 485.078125 60.328125 483.859375 61.25 482.71875 61.398438 C 481.574219 61.546875 480.175781 58.117188 480.175781 58.117188 C 480.175781 58.117188 479.4375 58.152344 479.253906 58.042969 C 479.070312 57.933594 479.214844 55.425781 479.214844 55.425781 C 477.703125 52.734375 479.621094 50.007812 479.621094 50.007812 C 480.984375 47.574219 487.070312 49.160156 488.507812 50.964844 C 489.945312 52.769531 489.578125 55.203125 489.648438 56.53125 C 489.714844 57.722656 492.09375 59.769531 492.929688 61.855469 C 495.796875 64.085938 496.710938 69.347656 494.960938 76.769531 C 493.3125 83.753906 493.566406 91.285156 493.789062 94.539062 C 493.84375 95.371094 493.097656 96.035156 492.277344 95.878906 C 492.035156 95.835938 491.796875 95.789062 491.558594 95.742188 C 491.257812 97.496094 489.960938 99.539062 489.796875 99.921875 C 489.625 100.324219 488.460938 108.296875 488.066406 112.78125 C 493.359375 117.945312 499.015625 129.023438 499.015625 129.339844 C 499.015625 129.382812 498.984375 129.464844 498.925781 129.578125 L 501.695312 133.382812 L 494.601562 139.925781 C 494.347656 140.160156 493.980469 140.257812 493.65625 140.140625 C 493.195312 139.980469 492.90625 139.429688 494.378906 137.6875 C 496.800781 134.8125 497.5625 133.589844 497.5625 133.589844 L 496.199219 132.496094 C 495.628906 132.824219 495.027344 133 494.441406 132.878906 C 494.109375 132.8125 491.230469 129.3125 487.992188 125.253906 C 487.832031 129.472656 487.429688 133.839844 486.554688 135.734375 L 486.339844 139.542969 L 476.710938 140.121094 C 476.363281 140.140625 476.015625 139.988281 475.835938 139.6875 C 475.585938 139.273438 475.707031 138.664062 477.949219 138.246094 C 480.84375 137.707031 482.304688 137.304688 482.804688 137.15625 C 481.394531 136.882812 480.285156 136.125 480.285156 136.125 C 480.285156 136.125 477.777344 113.5625 477.410156 111.054688 C 477.09375 108.917969 477.15625 95.339844 477.179688 91.40625 C 477.121094 91.378906 477.066406 91.351562 477.007812 91.324219 C 476.710938 91.679688 476.363281 91.554688 476.179688 91.492188 C 476.097656 91.464844 476.15625 91.246094 476.269531 90.957031 C 475.863281 90.746094 475.472656 90.53125 475.097656 90.3125 C 475.097656 90.3125 476.941406 84.582031 478.480469 78.910156 C 477.851562 78.585938 476.765625 78.007812 476.441406 77.875 C 476.074219 78.117188 475.429688 78.277344 475.0625 78.097656 C 474.730469 77.175781 471.105469 75.296875 471.085938 75.148438 Z M 470.367188 75.296875 C 471.191406 75.296875 471.042969 75.847656 470.882812 76.109375 C 470.722656 76.367188 470.171875 76.414062 469.949219 76.035156 C 469.726562 75.652344 470.367188 75.296875 470.367188 75.296875 Z M 472.394531 76.328125 C 472.394531 76.328125 471.621094 77.214844 471.695312 77.519531 C 471.769531 77.828125 473.476562 77.667969 473.4375 77.804688 C 473.402344 77.9375 473.464844 78.652344 473.980469 78.40625 C 474.496094 78.160156 474.433594 77.582031 474.203125 77.433594 C 473.96875 77.285156 473.710938 77.421875 473.710938 77.421875 L 472.933594 76.882812 C 472.933594 76.882812 472.972656 76.21875 472.394531 76.328125 " fill-opacity="1" fill-rule="nonzero"/><g clip-path="url(#b6c63d5030)"><path fill="#4caf50" d="M 487.597656 46.960938 C 487.53125 46.917969 487.460938 46.871094 487.390625 46.824219 C 487.339844 46.789062 487.289062 46.757812 487.238281 46.726562 C 487.199219 46.703125 487.164062 46.683594 487.125 46.660156 L 486.996094 46.578125 C 486.878906 46.507812 486.8125 46.402344 486.792969 46.246094 L 486.78125 46.128906 L 486.875 46.058594 C 486.960938 45.996094 487.042969 45.964844 487.128906 45.964844 C 487.175781 45.964844 487.21875 45.976562 487.257812 45.992188 L 487.425781 46.046875 L 487.507812 46.074219 C 487.59375 46.105469 487.679688 46.136719 487.761719 46.179688 C 487.96875 46.28125 488.183594 46.386719 488.375 46.519531 C 488.792969 46.777344 489.164062 47.085938 489.46875 47.433594 C 489.75 47.746094 490.003906 48.132812 490.25 48.613281 C 490.367188 48.839844 490.464844 49.046875 490.546875 49.253906 L 490.566406 49.300781 C 490.597656 49.398438 490.636719 49.496094 490.65625 49.597656 C 490.671875 49.65625 490.683594 49.714844 490.695312 49.773438 C 490.726562 49.910156 490.6875 50.035156 490.585938 50.144531 L 490.492188 50.242188 L 490.367188 50.195312 C 490.238281 50.148438 490.152344 50.074219 490.101562 49.957031 C 490.082031 49.914062 490.058594 49.867188 490.035156 49.816406 L 489.902344 49.527344 C 489.816406 49.347656 489.722656 49.15625 489.613281 48.980469 C 489.402344 48.65625 489.140625 48.332031 488.835938 48.019531 L 488.75 47.933594 C 488.488281 47.671875 488.21875 47.402344 487.910156 47.179688 C 487.8125 47.101562 487.710938 47.035156 487.597656 46.960938 Z M 467.386719 70.144531 C 467.414062 70.164062 467.445312 70.183594 467.46875 70.207031 C 467.523438 70.25 467.574219 70.304688 467.613281 70.367188 C 467.65625 70.429688 467.6875 70.503906 467.703125 70.578125 C 467.710938 70.617188 467.714844 70.65625 467.71875 70.695312 L 467.726562 70.789062 C 467.730469 70.910156 467.746094 71 467.773438 71.015625 C 467.789062 71.035156 467.859375 71.09375 467.949219 71.140625 C 468.054688 71.203125 468.191406 71.269531 468.296875 71.445312 C 468.347656 71.53125 468.367188 71.652344 468.34375 71.742188 C 468.328125 71.835938 468.289062 71.902344 468.257812 71.960938 C 468.242188 71.988281 468.222656 72.015625 468.207031 72.046875 C 468.203125 72.054688 468.195312 72.058594 468.195312 72.0625 C 468.191406 72.066406 468.191406 72.082031 468.210938 72.113281 C 468.234375 72.140625 468.265625 72.175781 468.304688 72.207031 C 468.320312 72.226562 468.339844 72.246094 468.363281 72.261719 C 468.382812 72.277344 468.398438 72.308594 468.394531 72.398438 C 468.335938 72.464844 468.296875 72.46875 468.265625 72.460938 C 468.234375 72.453125 468.203125 72.441406 468.171875 72.429688 C 468.109375 72.402344 468.042969 72.367188 467.988281 72.304688 C 467.933594 72.25 467.875 72.148438 467.882812 72.035156 C 467.886719 71.980469 467.90625 71.929688 467.925781 71.886719 C 467.9375 71.863281 467.949219 71.839844 467.957031 71.816406 C 467.972656 71.769531 467.984375 71.726562 467.980469 71.699219 C 467.976562 71.671875 467.96875 71.671875 467.953125 71.660156 C 467.925781 71.636719 467.84375 71.589844 467.746094 71.550781 C 467.628906 71.492188 467.480469 71.425781 467.378906 71.242188 C 467.328125 71.152344 467.3125 71.054688 467.3125 70.980469 C 467.308594 70.902344 467.316406 70.839844 467.320312 70.78125 L 467.328125 70.695312 C 467.328125 70.675781 467.332031 70.660156 467.328125 70.640625 C 467.328125 70.601562 467.320312 70.5625 467.308594 70.519531 C 467.296875 70.476562 467.28125 70.433594 467.257812 70.386719 C 467.246094 70.363281 467.234375 70.34375 467.222656 70.320312 C 467.203125 70.300781 467.203125 70.269531 467.234375 70.175781 C 467.316406 70.117188 467.359375 70.125 467.386719 70.144531 Z M 464.324219 72.703125 C 464.359375 72.691406 464.390625 72.683594 464.425781 72.675781 C 464.496094 72.664062 464.566406 72.660156 464.640625 72.667969 C 464.714844 72.675781 464.792969 72.699219 464.859375 72.738281 C 464.894531 72.753906 464.929688 72.777344 464.960938 72.796875 L 465.035156 72.847656 C 465.128906 72.921875 465.214844 72.972656 465.242188 72.960938 C 465.269531 72.960938 465.347656 72.945312 465.441406 72.90625 C 465.558594 72.859375 465.699219 72.792969 465.902344 72.828125 C 466.007812 72.84375 466.105469 72.914062 466.160156 72.980469 C 466.214844 73.050781 466.246094 73.117188 466.269531 73.183594 L 466.316406 73.300781 C 466.320312 73.308594 466.328125 73.316406 466.363281 73.320312 C 466.398438 73.320312 466.441406 73.320312 466.492188 73.3125 C 466.515625 73.308594 466.542969 73.304688 466.570312 73.300781 C 466.59375 73.292969 466.628906 73.300781 466.695312 73.359375 C 466.710938 73.445312 466.691406 73.480469 466.664062 73.5 C 466.636719 73.519531 466.609375 73.539062 466.578125 73.554688 C 466.519531 73.585938 466.449219 73.613281 466.367188 73.617188 C 466.285156 73.625 466.171875 73.597656 466.09375 73.515625 C 466.054688 73.480469 466.03125 73.433594 466.011719 73.398438 C 466 73.375 465.984375 73.351562 465.972656 73.328125 C 465.945312 73.289062 465.917969 73.253906 465.894531 73.238281 C 465.867188 73.222656 465.859375 73.226562 465.84375 73.226562 C 465.8125 73.234375 465.730469 73.265625 465.636719 73.320312 C 465.519531 73.375 465.371094 73.449219 465.160156 73.410156 C 465.058594 73.386719 464.976562 73.335938 464.921875 73.289062 C 464.863281 73.242188 464.816406 73.199219 464.773438 73.160156 L 464.714844 73.101562 C 464.699219 73.085938 464.6875 73.074219 464.667969 73.0625 C 464.636719 73.039062 464.601562 73.019531 464.5625 73 C 464.523438 72.984375 464.476562 72.964844 464.429688 72.957031 C 464.40625 72.949219 464.382812 72.945312 464.355469 72.941406 C 464.332031 72.941406 464.308594 72.921875 464.253906 72.839844 C 464.257812 72.742188 464.292969 72.710938 464.324219 72.703125 Z M 470.226562 70.84375 C 470.300781 70.949219 470.398438 71.070312 470.410156 71.277344 C 470.414062 71.378906 470.382812 71.476562 470.347656 71.546875 C 470.3125 71.617188 470.277344 71.667969 470.246094 71.71875 L 470.199219 71.789062 C 470.191406 71.804688 470.179688 71.820312 470.171875 71.835938 C 470.15625 71.871094 470.140625 71.910156 470.132812 71.949219 C 470.125 71.992188 470.117188 72.039062 470.117188 72.089844 C 470.117188 72.113281 470.117188 72.140625 470.121094 72.164062 C 470.125 72.191406 470.113281 72.21875 470.042969 72.285156 C 469.941406 72.300781 469.90625 72.273438 469.894531 72.246094 C 469.875 72.214844 469.859375 72.1875 469.847656 72.152344 C 469.820312 72.089844 469.796875 72.019531 469.792969 71.945312 C 469.785156 71.871094 469.792969 71.789062 469.8125 71.714844 C 469.824219 71.675781 469.839844 71.636719 469.855469 71.601562 L 469.894531 71.519531 C 469.917969 71.46875 469.941406 71.417969 469.953125 71.378906 C 469.964844 71.339844 469.960938 71.324219 469.957031 71.308594 C 469.949219 71.277344 469.914062 71.195312 469.855469 71.113281 C 469.789062 71.003906 469.703125 70.882812 469.6875 70.683594 C 469.679688 70.582031 469.722656 70.460938 469.789062 70.394531 C 469.847656 70.320312 469.914062 70.28125 469.972656 70.246094 L 470.054688 70.199219 C 470.0625 70.195312 470.070312 70.191406 470.070312 70.191406 C 470.074219 70.195312 470.082031 70.179688 470.074219 70.140625 C 470.070312 70.109375 470.054688 70.0625 470.039062 70.011719 C 470.03125 69.988281 470.019531 69.964844 470.007812 69.9375 C 470 69.914062 470 69.882812 470.042969 69.804688 C 470.125 69.773438 470.164062 69.785156 470.1875 69.808594 C 470.210938 69.832031 470.238281 69.855469 470.257812 69.878906 C 470.300781 69.933594 470.339844 69.992188 470.363281 70.070312 C 470.386719 70.144531 470.394531 70.257812 470.332031 70.359375 C 470.300781 70.410156 470.261719 70.445312 470.222656 70.472656 C 470.199219 70.488281 470.179688 70.503906 470.160156 70.519531 C 470.125 70.550781 470.09375 70.585938 470.085938 70.609375 C 470.078125 70.632812 470.085938 70.632812 470.09375 70.648438 C 470.105469 70.679688 470.15625 70.761719 470.226562 70.84375 Z M 468.25 73.550781 L 468.898438 73.347656 C 468.957031 73.320312 469.023438 73.324219 469.078125 73.355469 C 469.839844 73.792969 475.371094 76.972656 475.40625 77.226562 C 475.433594 77.425781 475.09375 77.71875 474.910156 77.859375 C 474.847656 77.90625 474.761719 77.914062 474.691406 77.871094 L 474.355469 77.671875 C 474.328125 77.566406 474.273438 77.480469 474.203125 77.433594 C 474.078125 77.355469 473.949219 77.355469 473.855469 77.375 L 472.933594 76.828125 C 472.929688 76.675781 472.875 76.238281 472.394531 76.328125 C 472.394531 76.328125 472.355469 76.375 472.292969 76.449219 L 472.109375 76.339844 C 472.148438 76.117188 472.035156 75.921875 471.621094 75.847656 C 471.621094 75.847656 471.542969 75.882812 471.4375 75.9375 L 471.003906 75.683594 C 470.992188 75.476562 470.839844 75.296875 470.367188 75.296875 C 470.367188 75.296875 470.363281 75.296875 470.359375 75.300781 L 468.265625 74.058594 C 468.183594 74.007812 468.148438 73.902344 468.1875 73.808594 L 468.148438 73.742188 C 468.167969 73.699219 468.207031 73.570312 468.25 73.550781 Z M 485.890625 59.050781 C 484.839844 59.050781 483.988281 57.984375 483.988281 56.679688 C 483.988281 55.371094 484.839844 54.308594 485.890625 54.308594 C 486.9375 54.308594 487.789062 55.371094 487.789062 56.679688 C 487.789062 57.984375 486.9375 59.050781 485.890625 59.050781 Z M 485.890625 59.394531 C 487.125 59.394531 488.132812 58.175781 488.132812 56.679688 C 488.132812 55.183594 487.125 53.964844 485.890625 53.964844 C 484.652344 53.964844 483.644531 55.183594 483.644531 56.679688 C 483.644531 58.175781 484.652344 59.394531 485.890625 59.394531 Z M 494.984375 136.707031 C 494.984375 136.707031 496.652344 135.980469 497.832031 136.308594 L 501.808594 132.992188 L 502.484375 133.921875 L 493.34375 141.082031 C 493.34375 141.082031 492.0625 140.167969 494.488281 137.296875 C 494.660156 137.089844 494.824219 136.894531 494.984375 136.707031 Z M 475 140.21875 L 486.609375 140.460938 L 486.675781 139.3125 L 481.496094 139.367188 C 480.789062 138.367188 479.039062 137.871094 479.039062 137.871094 C 478.800781 137.917969 478.546875 137.964844 478.285156 138.015625 C 474.589844 138.703125 475 140.21875 475 140.21875 " fill-opacity="1" fill-rule="nonzero"/></g><g clip-path="url(#98d43b4ccf)"><path fill="#388e3c" d="M 490.4375 50.007812 C 490.34375 49.972656 490.308594 49.929688 490.285156 49.878906 C 490.265625 49.828125 490.242188 49.78125 490.21875 49.730469 L 490.085938 49.4375 C 489.992188 49.246094 489.898438 49.054688 489.78125 48.871094 C 489.550781 48.511719 489.273438 48.179688 488.980469 47.878906 C 488.679688 47.578125 488.382812 47.273438 488.039062 47.023438 C 487.871094 46.886719 487.683594 46.785156 487.507812 46.660156 C 487.421875 46.597656 487.324219 46.546875 487.234375 46.488281 L 487.097656 46.402344 C 487.046875 46.375 487.007812 46.332031 486.996094 46.222656 C 487.082031 46.15625 487.140625 46.164062 487.195312 46.183594 L 487.355469 46.234375 C 487.460938 46.273438 487.574219 46.304688 487.671875 46.359375 C 487.875 46.460938 488.078125 46.5625 488.265625 46.691406 C 488.65625 46.929688 489.015625 47.226562 489.316406 47.570312 C 489.625 47.910156 489.867188 48.304688 490.070312 48.707031 C 490.175781 48.910156 490.273438 49.113281 490.359375 49.324219 C 490.394531 49.429688 490.4375 49.535156 490.460938 49.648438 C 490.476562 49.703125 490.488281 49.757812 490.496094 49.8125 C 490.511719 49.871094 490.503906 49.933594 490.4375 50.007812 Z M 494.972656 41.96875 C 493.246094 39.074219 488.464844 39.699219 487.246094 41.019531 C 486.289062 42.054688 486.421875 44.824219 486.523438 45.964844 C 484.0625 45.503906 481.054688 46.648438 479.410156 49.738281 C 479.078125 50.359375 478.882812 50.890625 480.1875 51.179688 C 480.1875 51.179688 482.167969 51.890625 484.292969 52.847656 C 484.308594 52.703125 484.355469 52.5625 484.4375 52.4375 C 484.703125 52.035156 485.253906 51.429688 485.902344 52.058594 C 486.332031 52.476562 486.46875 53.222656 486.382812 53.859375 C 487.644531 54.523438 488.722656 55.21875 489.171875 55.839844 C 489.277344 55.984375 489.390625 56.046875 489.511719 55.984375 C 489.996094 55.726562 491.128906 53.136719 490.621094 50.394531 C 496.828125 50.964844 496.566406 44.628906 494.972656 41.96875 Z M 468.085938 73.867188 C 468.113281 73.785156 468.15625 73.679688 468.1875 73.625 C 468.210938 73.582031 468.265625 73.566406 468.308594 73.59375 L 474.746094 77.554688 C 474.796875 77.585938 474.859375 77.585938 474.90625 77.554688 C 475.03125 77.476562 475.257812 77.320312 475.359375 77.234375 C 475.425781 77.179688 475.402344 77.285156 475.402344 77.285156 C 475.402344 77.285156 475.378906 77.417969 475.355469 77.539062 C 475.347656 77.585938 475.324219 77.628906 475.289062 77.660156 L 474.886719 78.003906 C 474.824219 78.058594 474.738281 78.066406 474.671875 78.023438 C 474.601562 77.984375 474.5 77.921875 474.375 77.847656 C 474.382812 77.667969 474.308594 77.503906 474.203125 77.433594 C 473.96875 77.285156 473.710938 77.421875 473.710938 77.421875 L 472.933594 76.882812 C 472.933594 76.882812 472.972656 76.21875 472.394531 76.328125 C 472.394531 76.328125 472.320312 76.414062 472.222656 76.539062 C 472.175781 76.507812 472.128906 76.480469 472.082031 76.453125 C 472.179688 76.183594 472.101562 75.933594 471.621094 75.847656 C 471.621094 75.847656 471.496094 75.902344 471.332031 75.996094 C 471.222656 75.925781 471.113281 75.859375 471 75.792969 C 471.035156 75.546875 470.921875 75.296875 470.367188 75.296875 C 470.367188 75.296875 470.332031 75.316406 470.28125 75.351562 C 469.277344 74.738281 468.429688 74.214844 468.144531 74.042969 C 468.085938 74.007812 468.058594 73.933594 468.085938 73.867188 Z M 479.542969 55.074219 C 479.496094 54.855469 479.617188 54.640625 479.816406 54.597656 C 480.015625 54.554688 480.214844 54.699219 480.261719 54.917969 C 480.3125 55.136719 480.1875 55.347656 479.992188 55.394531 C 479.792969 55.4375 479.59375 55.292969 479.542969 55.074219 Z M 479.792969 57.53125 C 479.828125 57.511719 479.863281 57.496094 479.898438 57.476562 C 479.96875 57.429688 480.039062 57.378906 480.125 57.355469 C 480.207031 57.328125 480.304688 57.34375 480.402344 57.367188 C 480.449219 57.382812 480.503906 57.402344 480.550781 57.433594 C 480.574219 57.453125 480.59375 57.476562 480.613281 57.5 L 480.632812 57.542969 C 480.640625 57.554688 480.640625 57.582031 480.578125 57.652344 C 480.503906 57.710938 480.488281 57.730469 480.480469 57.730469 C 480.472656 57.730469 480.464844 57.734375 480.460938 57.738281 L 480.425781 57.753906 C 480.402344 57.765625 480.386719 57.761719 480.359375 57.769531 C 480.3125 57.785156 480.261719 57.8125 480.199219 57.808594 C 480.140625 57.808594 480.070312 57.792969 480 57.792969 C 479.964844 57.796875 479.929688 57.800781 479.898438 57.808594 C 479.878906 57.8125 479.859375 57.8125 479.839844 57.808594 L 479.8125 57.800781 C 479.800781 57.800781 479.785156 57.78125 479.742188 57.710938 C 479.71875 57.632812 479.71875 57.605469 479.726562 57.597656 L 479.746094 57.570312 C 479.761719 57.554688 479.777344 57.539062 479.792969 57.53125 Z M 481.101562 58.613281 C 481.164062 58.582031 481.230469 58.546875 481.289062 58.503906 C 481.410156 58.417969 481.519531 58.316406 481.632812 58.230469 C 481.738281 58.136719 481.859375 58.070312 481.96875 57.984375 L 482.128906 57.851562 C 482.152344 57.828125 482.1875 57.808594 482.210938 57.785156 L 482.253906 57.75 C 482.269531 57.738281 482.296875 57.734375 482.390625 57.761719 C 482.460938 57.824219 482.46875 57.851562 482.460938 57.871094 L 482.445312 57.9375 C 482.4375 57.980469 482.417969 58.019531 482.398438 58.054688 C 482.363281 58.136719 482.308594 58.199219 482.257812 58.269531 C 482.148438 58.398438 482.035156 58.523438 481.890625 58.609375 C 481.75 58.691406 481.59375 58.75 481.441406 58.800781 C 481.367188 58.828125 481.292969 58.859375 481.21875 58.886719 C 481.179688 58.902344 481.140625 58.910156 481.101562 58.914062 L 481.039062 58.917969 C 481.019531 58.921875 480.992188 58.90625 480.945312 58.835938 C 480.9375 58.75 480.945312 58.726562 480.960938 58.710938 L 481.007812 58.675781 C 481.035156 58.652344 481.066406 58.632812 481.101562 58.613281 Z M 479.441406 53.804688 C 479.425781 53.808594 479.410156 53.792969 479.351562 53.71875 C 479.316406 53.628906 479.328125 53.597656 479.339844 53.585938 L 479.382812 53.550781 C 479.410156 53.527344 479.441406 53.503906 479.472656 53.488281 C 479.535156 53.453125 479.601562 53.433594 479.667969 53.414062 C 479.804688 53.382812 479.941406 53.355469 480.074219 53.382812 C 480.210938 53.402344 480.335938 53.460938 480.453125 53.515625 L 480.632812 53.585938 C 480.660156 53.597656 480.6875 53.617188 480.714844 53.636719 L 480.75 53.671875 C 480.761719 53.683594 480.769531 53.710938 480.75 53.789062 C 480.707031 53.863281 480.683594 53.878906 480.667969 53.878906 L 480.621094 53.878906 C 480.589844 53.878906 480.5625 53.875 480.535156 53.867188 C 480.480469 53.855469 480.425781 53.839844 480.367188 53.835938 C 480.253906 53.828125 480.140625 53.839844 480.035156 53.839844 C 479.929688 53.84375 479.828125 53.820312 479.722656 53.816406 L 479.566406 53.816406 L 479.484375 53.8125 Z M 496.253906 132.296875 L 496.355469 132.222656 C 496.425781 132.179688 496.492188 132.125 496.558594 132.074219 C 496.695312 131.976562 496.824219 131.871094 496.949219 131.765625 C 497.199219 131.546875 497.421875 131.300781 497.648438 131.058594 C 497.875 130.808594 498.101562 130.558594 498.304688 130.285156 C 498.402344 130.148438 498.492188 130.003906 498.578125 129.855469 C 498.625 129.785156 498.667969 129.710938 498.714844 129.640625 L 498.785156 129.535156 C 498.8125 129.5 498.847656 129.46875 498.941406 129.464844 C 499 129.535156 499 129.585938 498.988281 129.628906 C 498.972656 129.671875 498.960938 129.714844 498.945312 129.757812 C 498.914062 129.839844 498.878906 129.921875 498.839844 130 C 498.757812 130.15625 498.671875 130.308594 498.582031 130.464844 C 498.410156 130.773438 498.222656 131.078125 497.996094 131.359375 C 497.773438 131.640625 497.488281 131.871094 497.199219 132.085938 C 497.050781 132.1875 496.902344 132.289062 496.734375 132.363281 C 496.65625 132.40625 496.574219 132.445312 496.484375 132.472656 L 496.355469 132.511719 C 496.3125 132.527344 496.265625 132.53125 496.1875 132.460938 C 496.191406 132.355469 496.21875 132.320312 496.253906 132.296875 Z M 483.203125 137.128906 L 483.328125 137.121094 C 483.410156 137.121094 483.492188 137.121094 483.570312 137.109375 C 483.652344 137.105469 483.730469 137.09375 483.808594 137.09375 C 483.886719 137.085938 483.96875 137.070312 484.046875 137.058594 C 484.359375 137.003906 484.65625 136.902344 484.953125 136.785156 C 485.246094 136.667969 485.539062 136.535156 485.816406 136.359375 C 485.949219 136.269531 486.078125 136.167969 486.199219 136.0625 L 486.390625 135.902344 L 486.484375 135.828125 C 486.519531 135.800781 486.558594 135.785156 486.652344 135.804688 C 486.691406 135.890625 486.675781 135.9375 486.652344 135.972656 C 486.625 136.011719 486.601562 136.046875 486.574219 136.082031 C 486.523438 136.152344 486.464844 136.21875 486.402344 136.277344 C 486.28125 136.402344 486.148438 136.511719 486.011719 136.625 C 485.746094 136.851562 485.457031 137.058594 485.128906 137.207031 C 484.808594 137.363281 484.449219 137.433594 484.09375 137.457031 C 484.003906 137.460938 483.914062 137.46875 483.824219 137.46875 C 483.734375 137.46875 483.648438 137.457031 483.558594 137.449219 C 483.46875 137.445312 483.382812 137.425781 483.296875 137.398438 L 483.171875 137.363281 C 483.128906 137.355469 483.085938 137.328125 483.0625 137.230469 C 483.121094 137.140625 483.164062 137.125 483.203125 137.128906 Z M 476.898438 75.253906 C 476.882812 75.550781 476.878906 75.84375 476.847656 76.136719 C 476.828125 76.429688 476.765625 76.714844 476.710938 77.003906 C 476.683594 77.148438 476.660156 77.292969 476.625 77.4375 C 476.609375 77.507812 476.589844 77.578125 476.566406 77.652344 L 476.535156 77.757812 C 476.527344 77.792969 476.5 77.828125 476.402344 77.851562 C 476.3125 77.804688 476.296875 77.765625 476.296875 77.726562 L 476.289062 77.617188 C 476.289062 77.542969 476.285156 77.46875 476.289062 77.394531 C 476.289062 77.246094 476.300781 77.101562 476.3125 76.953125 C 476.332031 76.660156 476.34375 76.367188 476.394531 76.078125 C 476.441406 75.789062 476.507812 75.503906 476.566406 75.214844 L 476.640625 74.78125 C 476.65625 74.707031 476.667969 74.636719 476.6875 74.5625 L 476.71875 74.457031 C 476.730469 74.421875 476.757812 74.386719 476.84375 74.363281 C 476.921875 74.410156 476.9375 74.449219 476.941406 74.484375 L 476.945312 74.597656 C 476.945312 74.671875 476.941406 74.742188 476.9375 74.816406 Z M 474.363281 74.15625 C 474.292969 74.257812 474.199219 74.347656 474.085938 74.421875 C 474.03125 74.460938 473.96875 74.488281 473.902344 74.515625 C 473.871094 74.527344 473.832031 74.535156 473.800781 74.546875 C 473.777344 74.550781 473.777344 74.554688 473.773438 74.554688 C 473.773438 74.558594 473.769531 74.558594 473.765625 74.5625 C 473.75 74.574219 473.710938 74.640625 473.675781 74.734375 C 473.644531 74.828125 473.605469 74.9375 473.546875 75.054688 C 473.484375 75.167969 473.390625 75.304688 473.234375 75.382812 C 473.195312 75.402344 473.15625 75.421875 473.117188 75.433594 C 473.074219 75.441406 473.035156 75.445312 472.992188 75.449219 C 472.917969 75.453125 472.839844 75.445312 472.769531 75.433594 C 472.636719 75.40625 472.523438 75.355469 472.410156 75.300781 L 472.394531 75.296875 C 472.332031 75.265625 472.292969 75.199219 472.300781 75.125 C 472.308594 75.027344 472.324219 74.929688 472.339844 74.832031 C 472.351562 74.78125 472.359375 74.730469 472.371094 74.683594 C 472.378906 74.660156 472.378906 74.632812 472.390625 74.609375 C 472.40625 74.585938 472.4375 74.5625 472.503906 74.539062 C 472.570312 74.566406 472.601562 74.59375 472.613281 74.617188 C 472.625 74.640625 472.625 74.667969 472.628906 74.691406 C 472.636719 74.742188 472.644531 74.789062 472.652344 74.839844 C 472.65625 74.890625 472.660156 74.941406 472.664062 74.988281 C 472.816406 75.03125 472.957031 75.035156 473.015625 74.980469 C 473.054688 74.953125 473.097656 74.910156 473.144531 74.832031 C 473.191406 74.753906 473.234375 74.65625 473.296875 74.550781 C 473.328125 74.5 473.363281 74.441406 473.410156 74.382812 C 473.4375 74.351562 473.464844 74.324219 473.496094 74.296875 C 473.539062 74.269531 473.574219 74.242188 473.621094 74.226562 C 473.644531 74.21875 473.667969 74.214844 473.691406 74.207031 C 473.714844 74.203125 473.742188 74.199219 473.746094 74.199219 C 473.765625 74.195312 473.785156 74.195312 473.808594 74.191406 C 473.84375 74.183594 473.886719 74.171875 473.921875 74.152344 C 474 74.109375 474.070312 74.046875 474.136719 73.976562 L 474.238281 73.867188 C 474.28125 73.828125 474.28125 73.78125 474.421875 73.785156 C 474.519531 73.890625 474.46875 73.9375 474.449219 73.996094 C 474.425781 74.050781 474.398438 74.105469 474.363281 74.15625 Z M 479.289062 74.300781 C 479.359375 74.367188 479.367188 74.414062 479.363281 74.460938 L 479.34375 74.597656 C 479.332031 74.6875 479.3125 74.773438 479.292969 74.863281 L 479.171875 75.394531 C 479.101562 75.75 479.042969 76.109375 478.957031 76.460938 C 478.878906 76.8125 478.761719 77.15625 478.65625 77.503906 C 478.601562 77.675781 478.546875 77.851562 478.484375 78.019531 C 478.457031 78.105469 478.421875 78.191406 478.386719 78.277344 L 478.335938 78.402344 C 478.316406 78.445312 478.285156 78.484375 478.183594 78.503906 C 478.101562 78.433594 478.09375 78.386719 478.101562 78.339844 L 478.117188 78.207031 C 478.128906 78.113281 478.140625 78.023438 478.15625 77.933594 C 478.1875 77.753906 478.226562 77.578125 478.265625 77.402344 C 478.339844 77.046875 478.410156 76.691406 478.515625 76.34375 C 478.617188 75.996094 478.738281 75.652344 478.851562 75.308594 L 479.007812 74.789062 C 479.035156 74.703125 479.0625 74.617188 479.097656 74.53125 L 479.148438 74.402344 C 479.164062 74.363281 479.195312 74.324219 479.289062 74.300781 Z M 487.84375 123.699219 C 487.855469 123.46875 487.863281 123.242188 487.878906 123.011719 C 487.898438 122.554688 487.925781 122.097656 487.9375 121.636719 C 487.960938 120.71875 487.96875 119.796875 487.984375 118.875 L 488.039062 116.113281 C 488.039062 115.652344 488.035156 115.1875 488.03125 114.730469 C 488.027344 114.496094 488.027344 114.269531 488.035156 114.035156 L 488.039062 113.691406 C 488.042969 113.574219 488.058594 113.460938 488.136719 113.339844 C 488.226562 113.453125 488.25 113.566406 488.261719 113.683594 L 488.285156 114.03125 C 488.304688 114.261719 488.316406 114.492188 488.324219 114.722656 L 488.371094 116.105469 C 488.410156 117.03125 488.433594 117.953125 488.441406 118.878906 C 488.445312 119.804688 488.402344 120.730469 488.339844 121.65625 C 488.3125 122.117188 488.269531 122.582031 488.21875 123.042969 C 488.1875 123.273438 488.152344 123.503906 488.117188 123.734375 C 488.097656 123.847656 488.070312 123.960938 488.046875 124.078125 C 488.027344 124.191406 487.988281 124.304688 487.878906 124.402344 C 487.804688 124.269531 487.800781 124.15625 487.8125 124.039062 C 487.820312 123.925781 487.835938 123.8125 487.84375 123.699219 Z M 476.519531 91.191406 C 476.480469 91.191406 476.433594 91.183594 476.386719 91.167969 C 476.5 90.914062 476.613281 90.660156 476.710938 90.398438 C 476.832031 90.085938 476.941406 89.769531 477.050781 89.453125 C 477.238281 89.257812 477.429688 89.0625 477.625 88.875 C 477.726562 88.773438 477.828125 88.671875 477.925781 88.566406 C 477.96875 88.519531 478.011719 88.46875 478.054688 88.417969 C 478.601562 88.773438 479.742188 89.511719 480.882812 90.261719 C 480.878906 90.269531 480.875 90.28125 480.867188 90.289062 C 480.828125 90.394531 480.789062 90.5 480.742188 90.601562 C 480.648438 90.808594 480.542969 91.011719 480.460938 91.21875 C 480.375 91.429688 480.324219 91.648438 480.265625 91.867188 C 480.238281 91.976562 480.207031 92.085938 480.183594 92.199219 C 480.179688 92.230469 480.175781 92.265625 480.167969 92.296875 C 479.902344 92.28125 479.636719 92.246094 479.375 92.195312 C 478.957031 92.101562 478.550781 91.972656 478.179688 91.761719 L 477.914062 91.585938 C 477.828125 91.523438 477.75 91.449219 477.667969 91.382812 C 477.625 91.347656 477.582031 91.3125 477.539062 91.277344 L 477.429688 91.160156 L 477.328125 91.058594 C 477.335938 91.046875 477.34375 91.039062 477.351562 91.027344 L 477.484375 90.84375 C 477.527344 90.785156 477.582031 90.730469 477.53125 90.605469 C 477.382812 90.59375 477.339844 90.648438 477.285156 90.695312 L 477.121094 90.839844 C 477.015625 90.929688 476.910156 91.046875 476.820312 91.101562 C 476.722656 91.164062 476.625 91.199219 476.519531 91.191406 Z M 480.679688 92.308594 C 480.621094 92.3125 480.566406 92.308594 480.507812 92.308594 C 480.5625 92.207031 480.601562 92.105469 480.648438 92 C 480.679688 91.925781 480.714844 91.847656 480.746094 91.773438 C 480.820312 91.828125 480.898438 91.855469 480.976562 91.875 C 481.089844 91.902344 481.199219 91.9375 481.3125 91.976562 C 481.5 92.035156 481.683594 92.097656 481.867188 92.164062 C 481.855469 92.164062 481.847656 92.164062 481.835938 92.164062 L 481.667969 92.1875 L 481.339844 92.238281 C 481.121094 92.273438 480.898438 92.304688 480.679688 92.308594 Z M 475.898438 91.207031 C 475.867188 91.300781 475.902344 91.398438 475.984375 91.449219 C 476.078125 91.507812 476.15625 91.535156 476.246094 91.5625 C 476.335938 91.582031 476.429688 91.597656 476.527344 91.589844 C 476.714844 91.585938 476.902344 91.507812 477.039062 91.390625 C 477.089844 91.347656 477.128906 91.304688 477.167969 91.261719 L 477.210938 91.335938 L 477.304688 91.488281 C 477.34375 91.53125 477.386719 91.578125 477.425781 91.621094 C 477.507812 91.707031 477.582031 91.804688 477.675781 91.878906 L 477.960938 92.101562 C 478.363281 92.371094 478.816406 92.570312 479.292969 92.644531 C 479.765625 92.71875 480.242188 92.699219 480.707031 92.640625 C 480.820312 92.628906 480.9375 92.613281 481.050781 92.59375 C 481.167969 92.574219 481.28125 92.554688 481.394531 92.53125 C 481.507812 92.507812 481.621094 92.472656 481.730469 92.441406 L 481.894531 92.378906 C 481.949219 92.359375 481.992188 92.324219 482.03125 92.230469 C 482.023438 92.222656 482.011719 92.214844 482.003906 92.210938 C 482.441406 92.363281 482.875 92.523438 483.308594 92.683594 C 484.191406 93.019531 485.066406 93.382812 485.945312 93.722656 L 488.597656 94.746094 L 489.910156 95.289062 C 490.128906 95.378906 490.347656 95.46875 490.570312 95.550781 L 490.902344 95.675781 C 491.011719 95.71875 491.128906 95.746094 491.273438 95.71875 C 491.199219 95.59375 491.097656 95.527344 490.992188 95.476562 L 490.671875 95.316406 C 490.460938 95.210938 490.242188 95.113281 490.027344 95.015625 L 488.726562 94.441406 C 487.863281 94.046875 486.992188 93.664062 486.117188 93.296875 C 485.238281 92.9375 484.347656 92.609375 483.445312 92.304688 C 482.992188 92.152344 482.542969 92 482.082031 91.878906 C 481.851562 91.808594 481.617188 91.757812 481.382812 91.707031 C 481.265625 91.679688 481.148438 91.65625 481.027344 91.640625 C 480.953125 91.628906 480.878906 91.625 480.800781 91.640625 C 480.835938 91.550781 480.867188 91.460938 480.894531 91.371094 C 480.960938 91.15625 481.003906 90.929688 481.054688 90.710938 C 481.082031 90.617188 481.109375 90.523438 481.140625 90.429688 C 481.621094 90.746094 482.097656 91.058594 482.515625 91.339844 C 482.554688 91.363281 482.597656 91.378906 482.644531 91.378906 C 482.664062 91.378906 482.683594 91.375 482.703125 91.371094 C 486.914062 90.28125 493.878906 84.488281 494.1875 83.046875 C 496.242188 73.445312 494.316406 66.09375 494.296875 66.019531 C 494.261719 65.898438 494.136719 65.824219 494.015625 65.859375 C 493.890625 65.890625 493.820312 66.015625 493.851562 66.140625 C 493.871094 66.210938 495.765625 73.464844 493.738281 82.953125 C 493.464844 84.230469 486.746094 89.785156 482.6875 90.898438 C 481.113281 89.851562 478.859375 88.394531 478.175781 87.953125 C 480.726562 84.5 488.839844 79.523438 488.921875 79.472656 C 489.03125 79.40625 489.0625 79.265625 488.996094 79.15625 C 488.929688 79.050781 488.789062 79.015625 488.683594 79.082031 C 488.597656 79.132812 488.070312 79.457031 487.28125 79.964844 L 486.414062 69.15625 C 486.402344 69.03125 486.292969 68.9375 486.164062 68.949219 C 486.039062 68.957031 485.945312 69.066406 485.957031 69.195312 L 486.839844 80.179688 C 486.84375 80.203125 486.847656 80.226562 486.855469 80.246094 C 484.199219 81.988281 479.417969 85.328125 477.664062 87.882812 C 477.628906 87.9375 477.613281 88 477.625 88.058594 C 477.636719 88.121094 477.675781 88.171875 477.726562 88.207031 C 477.730469 88.210938 477.773438 88.238281 477.847656 88.285156 C 477.8125 88.3125 477.777344 88.34375 477.742188 88.371094 C 477.628906 88.460938 477.519531 88.554688 477.414062 88.652344 C 477.203125 88.847656 476.988281 89.035156 476.765625 89.21875 C 476.75 89.234375 476.738281 89.25 476.730469 89.265625 L 476.722656 89.285156 C 476.574219 89.597656 476.425781 89.910156 476.289062 90.226562 C 476.148438 90.542969 476.027344 90.863281 475.90625 91.1875 Z M 488.265625 62.050781 C 488.144531 62.125 488.015625 62.1875 487.90625 62.273438 L 487.5625 62.523438 C 487.441406 62.601562 487.339844 62.703125 487.234375 62.796875 C 487.128906 62.894531 487.019531 62.984375 486.910156 63.078125 L 486.601562 63.378906 L 486.445312 63.53125 C 486.394531 63.585938 486.332031 63.625 486.207031 63.621094 C 486.183594 63.507812 486.214844 63.4375 486.261719 63.378906 L 486.390625 63.199219 C 486.480469 63.082031 486.566406 62.953125 486.664062 62.84375 C 486.769531 62.734375 486.871094 62.625 486.976562 62.519531 C 487.082031 62.414062 487.183594 62.304688 487.304688 62.210938 C 487.753906 61.8125 488.273438 61.480469 488.832031 61.234375 C 489.398438 61.007812 490.003906 60.890625 490.609375 60.871094 C 490.910156 60.855469 491.214844 60.871094 491.515625 60.90625 C 491.664062 60.929688 491.8125 60.949219 491.957031 60.996094 C 492.03125 61.015625 492.101562 61.039062 492.171875 61.066406 C 492.246094 61.089844 492.3125 61.136719 492.355469 61.238281 C 492.257812 61.292969 492.1875 61.292969 492.113281 61.28125 C 492.046875 61.265625 491.976562 61.257812 491.902344 61.25 C 491.761719 61.226562 491.621094 61.214844 491.480469 61.199219 C 491.199219 61.179688 490.914062 61.167969 490.632812 61.203125 C 490.066406 61.265625 489.527344 61.433594 489.011719 61.65625 C 488.757812 61.785156 488.503906 61.898438 488.265625 62.050781 Z M 485.347656 59.898438 L 485.246094 59.996094 C 485.214844 60.03125 485.167969 60.050781 485.078125 60.035156 C 485.042969 59.945312 485.050781 59.898438 485.074219 59.859375 L 485.144531 59.742188 C 485.1875 59.667969 485.242188 59.597656 485.285156 59.519531 C 485.375 59.371094 485.472656 59.226562 485.546875 59.066406 C 485.699219 58.753906 485.804688 58.417969 485.902344 58.089844 C 485.996094 57.757812 486.089844 57.425781 486.144531 57.082031 C 486.171875 56.910156 486.191406 56.738281 486.210938 56.5625 L 486.238281 56.300781 C 486.242188 56.257812 486.246094 56.214844 486.25 56.171875 C 486.25 56.128906 486.265625 56.085938 486.355469 56.027344 C 486.457031 56.058594 486.480469 56.105469 486.488281 56.152344 C 486.5 56.199219 486.507812 56.246094 486.515625 56.289062 C 486.535156 56.382812 486.542969 56.476562 486.550781 56.566406 C 486.566406 56.753906 486.558594 56.941406 486.546875 57.128906 C 486.519531 57.5 486.464844 57.875 486.335938 58.226562 C 486.214844 58.582031 486.039062 58.917969 485.835938 59.226562 C 485.742188 59.386719 485.636719 59.539062 485.527344 59.691406 C 485.476562 59.765625 485.410156 59.835938 485.347656 59.898438 Z M 490.316406 63.15625 C 490.289062 63.03125 490.167969 62.953125 490.042969 62.980469 C 490.003906 62.988281 486.191406 63.867188 485.734375 67.527344 C 485.71875 67.652344 485.808594 67.765625 485.933594 67.78125 C 485.945312 67.78125 485.953125 67.78125 485.964844 67.78125 C 486.078125 67.78125 486.175781 67.699219 486.191406 67.582031 C 486.609375 64.242188 490.105469 63.4375 490.140625 63.429688 C 490.265625 63.402344 490.34375 63.277344 490.316406 63.15625 " fill-opacity="1" fill-rule="nonzero"/></g><path fill="#4caf50" d="M 490.910156 40.199219 L 490.9375 40.183594 C 490.953125 40.175781 490.972656 40.167969 490.992188 40.167969 C 491.027344 40.164062 491.0625 40.164062 491.097656 40.160156 C 491.171875 40.144531 491.25 40.121094 491.320312 40.125 C 491.394531 40.125 491.460938 40.164062 491.527344 40.195312 C 491.558594 40.210938 491.59375 40.226562 491.625 40.253906 C 491.640625 40.265625 491.65625 40.28125 491.667969 40.296875 L 491.6875 40.324219 C 491.695312 40.328125 491.699219 40.355469 491.675781 40.445312 C 491.640625 40.53125 491.625 40.550781 491.617188 40.554688 L 491.589844 40.566406 C 491.570312 40.570312 491.550781 40.578125 491.535156 40.582031 C 491.5 40.589844 491.46875 40.585938 491.433594 40.589844 C 491.371094 40.589844 491.304688 40.601562 491.246094 40.578125 C 491.183594 40.558594 491.125 40.519531 491.0625 40.488281 C 491.03125 40.476562 491 40.472656 490.96875 40.464844 C 490.953125 40.460938 490.9375 40.453125 490.921875 40.441406 L 490.898438 40.421875 C 490.890625 40.414062 490.882812 40.394531 490.878906 40.3125 C 490.890625 40.226562 490.898438 40.207031 490.910156 40.199219 Z M 492.195312 40.605469 C 492.21875 40.707031 492.253906 40.734375 492.292969 40.75 L 492.40625 40.792969 C 492.480469 40.816406 492.554688 40.847656 492.625 40.878906 C 492.699219 40.910156 492.765625 40.945312 492.839844 40.972656 L 493.046875 41.082031 C 493.316406 41.234375 493.558594 41.425781 493.792969 41.628906 C 494.027344 41.832031 494.257812 42.050781 494.457031 42.300781 C 494.554688 42.429688 494.644531 42.5625 494.726562 42.699219 L 494.855469 42.90625 L 494.921875 43.007812 C 494.941406 43.039062 494.976562 43.066406 495.070312 43.074219 C 495.132812 43.007812 495.136719 42.957031 495.125 42.917969 C 495.109375 42.875 495.101562 42.832031 495.085938 42.792969 C 495.058594 42.710938 495.023438 42.632812 494.984375 42.558594 C 494.910156 42.40625 494.820312 42.257812 494.730469 42.113281 C 494.554688 41.820312 494.355469 41.535156 494.101562 41.292969 C 493.859375 41.039062 493.542969 40.863281 493.222656 40.71875 L 492.980469 40.621094 C 492.894531 40.597656 492.808594 40.578125 492.726562 40.554688 C 492.640625 40.53125 492.554688 40.523438 492.46875 40.519531 L 492.335938 40.511719 C 492.292969 40.507812 492.246094 40.519531 492.195312 40.605469 " fill-opacity="1" fill-rule="nonzero"/><path fill="#ffffff" d="M 469.03125 73.960938 L 473.703125 76.808594 L 474.292969 76.464844 L 469.722656 73.792969 L 469.03125 73.960938 " fill-opacity="1" fill-rule="nonzero"/></svg>