<svg xmlns="http://www.w3.org/2000/svg" xmlns:xlink="http://www.w3.org/1999/xlink" width="360" zoomAndPan="magnify" viewBox="0 0 270 179.999997" height="240" preserveAspectRatio="xMidYMid meet" version="1.0"><defs><clipPath id="26138dedd1"><path d="M 50.375 90 L 102.125 90 L 102.125 107.25 L 50.375 107.25 Z M 50.375 90 " clip-rule="nonzero"/></clipPath><clipPath id="90595e163b"><path d="M 17.273438 47.902344 L 93.023438 47.902344 L 93.023438 73.402344 L 17.273438 73.402344 Z M 17.273438 47.902344 " clip-rule="nonzero"/></clipPath><clipPath id="c7a6b9c970"><path d="M 233 43 L 269.925781 43 L 269.925781 146 L 233 146 Z M 233 43 " clip-rule="nonzero"/></clipPath><clipPath id="92ea8f503d"><path d="M 227.261719 40.386719 L 269.925781 40.386719 L 269.925781 146.902344 L 227.261719 146.902344 Z M 227.261719 40.386719 " clip-rule="nonzero"/></clipPath></defs><rect x="-27" width="324" fill="#ffffff" y="-18" height="215.999996" fill-opacity="1"/><rect x="-27" width="324" fill="#ffffff" y="-18" height="215.999996" fill-opacity="1"/><rect x="-27" width="324" fill="#ffffff" y="-18" height="215.999996" fill-opacity="1"/><g clip-path="url(#26138dedd1)"><path fill="#ffffff" d="M 99.277344 107.246094 L 53.222656 107.246094 C 51.652344 107.246094 50.375 105.972656 50.375 104.402344 L 50.375 92.847656 C 50.375 91.277344 51.652344 90.003906 53.222656 90.003906 L 99.269531 90.003906 C 100.839844 90.003906 102.117188 91.277344 102.117188 92.847656 L 102.117188 104.402344 C 102.125 105.972656 100.847656 107.246094 99.277344 107.246094 Z M 99.277344 107.246094 " fill-opacity="1" fill-rule="nonzero"/></g><path fill="#4caf50" d="M 57.484375 91.847656 L 54.148438 91.847656 C 53.515625 91.847656 53 92.363281 53 92.996094 L 53 95.65625 C 53 96.289062 53.515625 96.804688 54.148438 96.804688 L 57.484375 96.804688 C 58.117188 96.804688 58.632812 96.289062 58.632812 95.65625 L 58.632812 92.996094 C 58.632812 92.363281 58.117188 91.847656 57.484375 91.847656 Z M 55.8125 95.96875 C 55.417969 95.96875 55.039062 95.847656 54.746094 95.65625 L 54.085938 95.738281 L 54.304688 95.253906 C 54.113281 94.996094 53.992188 94.683594 53.992188 94.351562 C 53.992188 93.464844 54.800781 92.746094 55.804688 92.746094 C 56.804688 92.746094 57.613281 93.472656 57.613281 94.351562 C 57.613281 95.234375 56.8125 95.96875 55.8125 95.96875 Z M 55.8125 95.96875 " fill-opacity="1" fill-rule="nonzero"/><path fill="#4caf50" d="M 74.503906 94.886719 L 60.652344 94.886719 C 60.339844 94.886719 60.09375 94.636719 60.09375 94.324219 C 60.09375 94.011719 60.339844 93.765625 60.652344 93.765625 L 74.503906 93.765625 C 74.816406 93.765625 75.066406 94.011719 75.066406 94.324219 C 75.066406 94.636719 74.808594 94.886719 74.503906 94.886719 Z M 74.503906 94.886719 " fill-opacity="1" fill-rule="nonzero"/><path fill="#808080" d="M 64.722656 100.5 L 53.03125 100.5 C 52.71875 100.5 52.46875 100.253906 52.46875 99.941406 C 52.46875 99.628906 52.71875 99.382812 53.03125 99.382812 L 64.714844 99.382812 C 65.023438 99.382812 65.273438 99.628906 65.273438 99.941406 C 65.28125 100.253906 65.023438 100.5 64.722656 100.5 Z M 64.722656 100.5 " fill-opacity="1" fill-rule="nonzero"/><path fill="#808080" d="M 65.578125 102.8125 L 53.03125 102.8125 C 52.71875 102.8125 52.46875 102.566406 52.46875 102.253906 C 52.46875 101.941406 52.71875 101.695312 53.03125 101.695312 L 65.566406 101.695312 C 65.878906 101.695312 66.128906 101.941406 66.128906 102.253906 C 66.128906 102.566406 65.878906 102.8125 65.578125 102.8125 Z M 65.578125 102.8125 " fill-opacity="1" fill-rule="nonzero"/><path fill="#808080" d="M 73.714844 102.8125 L 68.269531 102.8125 C 67.957031 102.8125 67.707031 102.566406 67.707031 102.253906 C 67.707031 101.941406 67.957031 101.695312 68.269531 101.695312 L 73.714844 101.695312 C 74.027344 101.695312 74.273438 101.941406 74.273438 102.253906 C 74.273438 102.566406 74.027344 102.8125 73.714844 102.8125 Z M 73.714844 102.8125 " fill-opacity="1" fill-rule="nonzero"/><path fill="#808080" d="M 80.015625 100.5 L 67.476562 100.5 C 67.164062 100.5 66.917969 100.253906 66.917969 99.941406 C 66.917969 99.628906 67.164062 99.382812 67.476562 99.382812 L 80.015625 99.382812 C 80.328125 99.382812 80.574219 99.628906 80.574219 99.941406 C 80.574219 100.253906 80.328125 100.5 80.015625 100.5 Z M 80.015625 100.5 " fill-opacity="1" fill-rule="nonzero"/><g clip-path="url(#90595e163b)"><path fill="#ffffff" d="M 88.855469 73.394531 L 21.441406 73.394531 C 19.140625 73.394531 17.273438 71.507812 17.273438 69.191406 L 17.273438 52.113281 C 17.273438 49.792969 19.140625 47.90625 21.441406 47.90625 L 88.839844 47.90625 C 91.140625 47.90625 93.007812 49.792969 93.007812 52.113281 L 93.007812 69.191406 C 93.023438 71.507812 91.152344 73.394531 88.855469 73.394531 Z M 88.855469 73.394531 " fill-opacity="1" fill-rule="nonzero"/></g><path fill="#4caf50" d="M 27.679688 50.632812 L 22.800781 50.632812 C 21.871094 50.632812 21.117188 51.394531 21.117188 52.328125 L 21.117188 56.261719 C 21.117188 57.199219 21.871094 57.957031 22.800781 57.957031 L 27.679688 57.957031 C 28.605469 57.957031 29.359375 57.199219 29.359375 56.261719 L 29.359375 52.328125 C 29.359375 51.394531 28.605469 50.632812 27.679688 50.632812 Z M 25.234375 56.722656 C 24.65625 56.722656 24.101562 56.546875 23.671875 56.261719 L 22.703125 56.386719 L 23.027344 55.667969 C 22.746094 55.285156 22.570312 54.824219 22.570312 54.335938 C 22.570312 53.023438 23.753906 51.964844 25.21875 51.964844 C 26.683594 51.964844 27.867188 53.035156 27.867188 54.335938 C 27.867188 55.640625 26.699219 56.722656 25.234375 56.722656 Z M 25.234375 56.722656 " fill-opacity="1" fill-rule="nonzero"/><path fill="#4caf50" d="M 52.59375 55.125 L 32.316406 55.125 C 31.859375 55.125 31.496094 54.757812 31.496094 54.296875 C 31.496094 53.835938 31.859375 53.46875 32.316406 53.46875 L 52.59375 53.46875 C 53.050781 53.46875 53.414062 53.835938 53.414062 54.296875 C 53.414062 54.757812 53.035156 55.125 52.59375 55.125 Z M 52.59375 55.125 " fill-opacity="1" fill-rule="nonzero"/><path fill="#808080" d="M 38.273438 63.425781 L 21.160156 63.425781 C 20.703125 63.425781 20.339844 63.058594 20.339844 62.597656 C 20.339844 62.136719 20.703125 61.769531 21.160156 61.769531 L 38.261719 61.769531 C 38.71875 61.769531 39.082031 62.136719 39.082031 62.597656 C 39.09375 63.058594 38.71875 63.425781 38.273438 63.425781 Z M 38.273438 63.425781 " fill-opacity="1" fill-rule="nonzero"/><path fill="#808080" d="M 39.523438 66.84375 L 21.160156 66.84375 C 20.703125 66.84375 20.339844 66.476562 20.339844 66.015625 C 20.339844 65.554688 20.703125 65.1875 21.160156 65.1875 L 39.511719 65.1875 C 39.96875 65.1875 40.332031 65.554688 40.332031 66.015625 C 40.332031 66.476562 39.96875 66.84375 39.523438 66.84375 Z M 39.523438 66.84375 " fill-opacity="1" fill-rule="nonzero"/><path fill="#808080" d="M 51.4375 66.84375 L 43.464844 66.84375 C 43.007812 66.84375 42.644531 66.476562 42.644531 66.015625 C 42.644531 65.554688 43.007812 65.1875 43.464844 65.1875 L 51.4375 65.1875 C 51.894531 65.1875 52.257812 65.554688 52.257812 66.015625 C 52.257812 66.476562 51.894531 66.84375 51.4375 66.84375 Z M 51.4375 66.84375 " fill-opacity="1" fill-rule="nonzero"/><path fill="#808080" d="M 60.660156 63.425781 L 42.308594 63.425781 C 41.851562 63.425781 41.488281 63.058594 41.488281 62.597656 C 41.488281 62.136719 41.851562 61.769531 42.308594 61.769531 L 60.660156 61.769531 C 61.117188 61.769531 61.480469 62.136719 61.480469 62.597656 C 61.480469 63.058594 61.117188 63.425781 60.660156 63.425781 Z M 60.660156 63.425781 " fill-opacity="1" fill-rule="nonzero"/><g clip-path="url(#c7a6b9c970)"><path fill="#8add8e" d="M 235.492188 73.996094 C 236.726562 74.214844 235.574219 75.382812 235.175781 75.628906 C 234.777344 75.875 234.199219 75.519531 234.324219 74.984375 C 234.449219 74.449219 235.492188 73.996094 235.492188 73.996094 Z M 234.894531 73.210938 C 234.875 73.046875 236.523438 72.636719 236.523438 72.636719 C 236.523438 72.636719 236.480469 71.625 236.667969 71.441406 C 236.851562 71.253906 238.148438 70.882812 238.480469 70.925781 C 238.738281 70.957031 240.472656 71.957031 241.226562 72.390625 C 241.234375 72.378906 241.238281 72.367188 241.246094 72.359375 C 241.4375 72.148438 243.542969 72.164062 244.480469 72.183594 C 244.867188 70.492188 245.167969 68.964844 245.324219 67.761719 C 245.359375 67.472656 245.441406 67.199219 245.566406 66.9375 C 246.769531 64.445312 249.449219 61.933594 251.785156 60.0625 C 251.464844 58.488281 250.53125 56.648438 250.53125 56.648438 C 250.53125 56.648438 249.171875 57.679688 247.894531 57.84375 C 246.617188 58.007812 245.050781 54.175781 245.050781 54.175781 C 245.050781 54.175781 244.226562 54.214844 244.019531 54.09375 C 243.816406 53.96875 243.980469 51.167969 243.980469 51.167969 C 242.289062 48.160156 244.433594 45.113281 244.433594 45.113281 C 245.957031 42.390625 252.757812 44.164062 254.363281 46.183594 C 255.96875 48.203125 255.558594 50.921875 255.640625 52.402344 C 255.714844 53.734375 258.371094 56.023438 259.304688 58.355469 C 262.507812 60.847656 263.53125 66.730469 261.574219 75.023438 C 259.730469 82.828125 260.015625 91.25 260.265625 94.882812 C 260.328125 95.816406 259.492188 96.554688 258.574219 96.382812 C 258.308594 96.332031 258.039062 96.28125 257.773438 96.230469 C 257.4375 98.1875 255.988281 100.472656 255.804688 100.898438 C 255.613281 101.351562 254.3125 110.261719 253.871094 115.273438 C 259.785156 121.042969 266.105469 133.425781 266.105469 133.78125 C 266.105469 133.824219 266.070312 133.917969 266.007812 134.042969 L 269.101562 138.296875 L 261.175781 145.609375 C 260.890625 145.871094 260.480469 145.980469 260.117188 145.851562 C 259.605469 145.667969 259.277344 145.054688 260.925781 143.105469 C 263.632812 139.898438 264.484375 138.53125 264.484375 138.53125 L 262.957031 137.308594 C 262.324219 137.671875 261.652344 137.867188 260.996094 137.734375 C 260.625 137.660156 257.410156 133.75 253.789062 129.214844 C 253.609375 133.925781 253.160156 138.804688 252.183594 140.925781 L 251.945312 145.183594 L 241.179688 145.828125 C 240.792969 145.851562 240.40625 145.675781 240.203125 145.34375 C 239.925781 144.882812 240.058594 144.199219 242.566406 143.730469 C 245.796875 143.128906 247.433594 142.679688 247.992188 142.511719 C 246.417969 142.207031 245.175781 141.363281 245.175781 141.363281 C 245.175781 141.363281 242.371094 116.144531 241.960938 113.34375 C 241.609375 110.953125 241.675781 95.777344 241.707031 91.382812 C 241.640625 91.351562 241.578125 91.320312 241.511719 91.289062 C 241.183594 91.6875 240.792969 91.546875 240.585938 91.480469 C 240.496094 91.449219 240.558594 91.203125 240.6875 90.878906 C 240.234375 90.644531 239.796875 90.40625 239.378906 90.160156 C 239.378906 90.160156 241.4375 83.753906 243.15625 77.414062 C 242.457031 77.054688 241.242188 76.40625 240.882812 76.261719 C 240.46875 76.53125 239.75 76.707031 239.335938 76.507812 C 238.964844 75.476562 234.914062 73.375 234.894531 73.210938 Z M 234.089844 73.375 C 235.011719 73.375 234.847656 73.996094 234.667969 74.285156 C 234.488281 74.570312 233.871094 74.625 233.625 74.199219 C 233.378906 73.773438 234.089844 73.375 234.089844 73.375 Z M 236.355469 74.53125 C 236.355469 74.53125 235.492188 75.519531 235.574219 75.863281 C 235.65625 76.207031 237.566406 76.027344 237.523438 76.179688 C 237.484375 76.328125 237.550781 77.125 238.128906 76.851562 C 238.707031 76.578125 238.636719 75.929688 238.375 75.765625 C 238.117188 75.601562 237.828125 75.753906 237.828125 75.753906 L 236.960938 75.148438 C 236.960938 75.148438 237.003906 74.40625 236.355469 74.53125 " fill-opacity="1" fill-rule="nonzero"/></g><g clip-path="url(#92ea8f503d)"><path fill="#4caf50" d="M 253.347656 41.710938 C 253.269531 41.660156 253.195312 41.609375 253.117188 41.554688 C 253.0625 41.515625 253.003906 41.480469 252.945312 41.445312 C 252.902344 41.421875 252.859375 41.398438 252.820312 41.371094 L 252.675781 41.277344 C 252.542969 41.203125 252.46875 41.082031 252.449219 40.910156 L 252.433594 40.777344 L 252.539062 40.699219 C 252.632812 40.628906 252.726562 40.597656 252.824219 40.597656 C 252.875 40.597656 252.921875 40.605469 252.96875 40.625 L 253.15625 40.683594 L 253.246094 40.71875 C 253.339844 40.75 253.441406 40.785156 253.527344 40.835938 C 253.761719 40.949219 254 41.066406 254.214844 41.214844 C 254.683594 41.503906 255.09375 41.847656 255.4375 42.234375 C 255.75 42.585938 256.039062 43.019531 256.3125 43.554688 C 256.445312 43.808594 256.550781 44.039062 256.644531 44.273438 L 256.664062 44.324219 C 256.703125 44.429688 256.742188 44.539062 256.765625 44.652344 C 256.785156 44.71875 256.796875 44.789062 256.808594 44.851562 C 256.839844 45.003906 256.800781 45.144531 256.683594 45.265625 L 256.582031 45.375 L 256.441406 45.324219 C 256.296875 45.273438 256.203125 45.1875 256.144531 45.058594 C 256.121094 45.007812 256.097656 44.957031 256.070312 44.898438 L 255.921875 44.574219 C 255.828125 44.375 255.722656 44.160156 255.597656 43.964844 C 255.363281 43.601562 255.070312 43.242188 254.730469 42.894531 L 254.636719 42.796875 C 254.34375 42.503906 254.042969 42.203125 253.695312 41.953125 C 253.589844 41.867188 253.472656 41.789062 253.347656 41.710938 Z M 230.757812 67.621094 C 230.792969 67.640625 230.824219 67.660156 230.855469 67.6875 C 230.914062 67.738281 230.96875 67.796875 231.015625 67.867188 C 231.0625 67.9375 231.09375 68.019531 231.113281 68.105469 C 231.125 68.148438 231.128906 68.191406 231.132812 68.234375 L 231.140625 68.335938 C 231.144531 68.472656 231.164062 68.574219 231.191406 68.589844 C 231.210938 68.617188 231.289062 68.679688 231.386719 68.730469 C 231.507812 68.800781 231.660156 68.878906 231.777344 69.070312 C 231.835938 69.167969 231.855469 69.304688 231.832031 69.40625 C 231.8125 69.507812 231.769531 69.582031 231.734375 69.648438 C 231.714844 69.679688 231.695312 69.710938 231.675781 69.742188 C 231.671875 69.753906 231.664062 69.761719 231.664062 69.761719 C 231.660156 69.765625 231.660156 69.78125 231.683594 69.816406 C 231.707031 69.847656 231.742188 69.886719 231.785156 69.925781 C 231.804688 69.945312 231.828125 69.964844 231.851562 69.984375 C 231.875 70.003906 231.890625 70.039062 231.886719 70.136719 C 231.824219 70.210938 231.777344 70.21875 231.742188 70.207031 C 231.707031 70.195312 231.671875 70.1875 231.636719 70.171875 C 231.566406 70.140625 231.496094 70.101562 231.433594 70.035156 C 231.371094 69.972656 231.308594 69.859375 231.316406 69.734375 C 231.320312 69.667969 231.34375 69.613281 231.363281 69.566406 C 231.375 69.539062 231.390625 69.511719 231.398438 69.488281 C 231.417969 69.433594 231.425781 69.386719 231.421875 69.355469 C 231.417969 69.328125 231.410156 69.328125 231.394531 69.316406 C 231.363281 69.285156 231.273438 69.234375 231.160156 69.1875 C 231.03125 69.125 230.867188 69.050781 230.75 68.847656 C 230.695312 68.746094 230.679688 68.636719 230.675781 68.554688 C 230.675781 68.46875 230.683594 68.398438 230.6875 68.332031 L 230.695312 68.234375 C 230.695312 68.214844 230.699219 68.195312 230.695312 68.171875 C 230.695312 68.128906 230.6875 68.085938 230.675781 68.039062 C 230.660156 67.992188 230.640625 67.941406 230.617188 67.890625 C 230.605469 67.863281 230.589844 67.839844 230.578125 67.816406 C 230.558594 67.792969 230.558594 67.757812 230.59375 67.65625 C 230.679688 67.589844 230.730469 67.597656 230.757812 67.621094 Z M 227.339844 70.480469 C 227.375 70.46875 227.414062 70.457031 227.453125 70.449219 C 227.527344 70.433594 227.609375 70.429688 227.695312 70.441406 C 227.777344 70.449219 227.859375 70.476562 227.9375 70.515625 C 227.976562 70.535156 228.011719 70.5625 228.050781 70.585938 L 228.132812 70.640625 C 228.238281 70.722656 228.335938 70.777344 228.363281 70.769531 C 228.394531 70.769531 228.484375 70.75 228.585938 70.703125 C 228.714844 70.65625 228.875 70.578125 229.105469 70.617188 C 229.21875 70.636719 229.328125 70.714844 229.390625 70.789062 C 229.453125 70.867188 229.484375 70.945312 229.515625 71.015625 L 229.566406 71.148438 C 229.570312 71.15625 229.578125 71.164062 229.617188 71.167969 C 229.65625 71.171875 229.707031 71.167969 229.761719 71.160156 C 229.789062 71.15625 229.816406 71.152344 229.847656 71.144531 C 229.875 71.140625 229.910156 71.148438 229.988281 71.210938 C 230.007812 71.308594 229.984375 71.347656 229.953125 71.371094 C 229.921875 71.390625 229.894531 71.414062 229.859375 71.429688 C 229.789062 71.464844 229.714844 71.496094 229.621094 71.5 C 229.527344 71.507812 229.402344 71.476562 229.316406 71.390625 C 229.269531 71.347656 229.242188 71.296875 229.222656 71.253906 C 229.210938 71.230469 229.195312 71.203125 229.179688 71.179688 C 229.152344 71.132812 229.117188 71.09375 229.089844 71.074219 C 229.0625 71.058594 229.054688 71.0625 229.039062 71.066406 C 229.003906 71.074219 228.910156 71.109375 228.804688 71.167969 C 228.675781 71.230469 228.507812 71.3125 228.273438 71.269531 C 228.160156 71.246094 228.066406 71.1875 228.003906 71.136719 C 227.9375 71.082031 227.890625 71.035156 227.84375 70.988281 L 227.773438 70.921875 C 227.753906 70.910156 227.742188 70.890625 227.722656 70.878906 C 227.6875 70.851562 227.648438 70.832031 227.605469 70.808594 C 227.558594 70.792969 227.511719 70.773438 227.457031 70.761719 C 227.429688 70.753906 227.402344 70.75 227.375 70.746094 C 227.347656 70.746094 227.320312 70.722656 227.261719 70.628906 C 227.265625 70.519531 227.304688 70.488281 227.339844 70.480469 Z M 233.933594 68.398438 C 234.019531 68.519531 234.125 68.652344 234.140625 68.886719 C 234.144531 69 234.109375 69.109375 234.070312 69.1875 C 234.03125 69.261719 233.992188 69.320312 233.957031 69.375 L 233.90625 69.457031 C 233.894531 69.476562 233.882812 69.492188 233.871094 69.511719 C 233.855469 69.546875 233.839844 69.589844 233.832031 69.636719 C 233.820312 69.683594 233.8125 69.738281 233.8125 69.792969 C 233.8125 69.820312 233.8125 69.847656 233.816406 69.878906 C 233.820312 69.90625 233.804688 69.9375 233.726562 70.011719 C 233.617188 70.027344 233.578125 70 233.5625 69.96875 C 233.542969 69.933594 233.523438 69.898438 233.507812 69.863281 C 233.480469 69.792969 233.457031 69.714844 233.449219 69.628906 C 233.441406 69.546875 233.449219 69.457031 233.472656 69.371094 C 233.484375 69.328125 233.503906 69.289062 233.519531 69.25 L 233.5625 69.15625 C 233.589844 69.097656 233.617188 69.042969 233.628906 69 C 233.640625 68.957031 233.636719 68.9375 233.632812 68.917969 C 233.625 68.886719 233.582031 68.792969 233.519531 68.699219 C 233.445312 68.582031 233.347656 68.445312 233.332031 68.222656 C 233.324219 68.109375 233.371094 67.972656 233.445312 67.898438 C 233.511719 67.816406 233.582031 67.769531 233.648438 67.734375 L 233.742188 67.679688 C 233.75 67.675781 233.757812 67.671875 233.761719 67.671875 C 233.761719 67.675781 233.769531 67.660156 233.765625 67.617188 C 233.757812 67.578125 233.742188 67.527344 233.722656 67.472656 C 233.714844 67.445312 233.703125 67.417969 233.691406 67.390625 C 233.679688 67.363281 233.683594 67.324219 233.730469 67.242188 C 233.824219 67.203125 233.867188 67.21875 233.890625 67.242188 C 233.917969 67.269531 233.945312 67.292969 233.96875 67.324219 C 234.015625 67.382812 234.0625 67.449219 234.085938 67.535156 C 234.113281 67.617188 234.121094 67.746094 234.054688 67.859375 C 234.019531 67.914062 233.976562 67.953125 233.929688 67.984375 C 233.90625 68.003906 233.882812 68.019531 233.859375 68.039062 C 233.820312 68.074219 233.789062 68.113281 233.777344 68.136719 C 233.769531 68.164062 233.777344 68.164062 233.785156 68.179688 C 233.800781 68.21875 233.855469 68.308594 233.933594 68.398438 Z M 231.726562 71.425781 L 232.449219 71.199219 C 232.515625 71.167969 232.589844 71.171875 232.648438 71.207031 C 233.5 71.695312 239.683594 75.25 239.722656 75.53125 C 239.753906 75.753906 239.371094 76.082031 239.171875 76.238281 C 239.097656 76.296875 239 76.300781 238.925781 76.253906 L 238.550781 76.03125 C 238.519531 75.914062 238.457031 75.816406 238.375 75.765625 C 238.238281 75.679688 238.097656 75.679688 237.992188 75.699219 L 236.960938 75.089844 C 236.957031 74.917969 236.890625 74.425781 236.355469 74.53125 C 236.355469 74.53125 236.3125 74.582031 236.246094 74.664062 L 236.039062 74.542969 C 236.082031 74.292969 235.957031 74.078125 235.492188 73.996094 C 235.492188 73.996094 235.40625 74.03125 235.285156 74.09375 L 234.804688 73.808594 C 234.789062 73.582031 234.621094 73.375 234.089844 73.375 C 234.089844 73.375 234.089844 73.378906 234.082031 73.378906 L 231.746094 71.992188 C 231.648438 71.9375 231.613281 71.816406 231.65625 71.714844 L 231.613281 71.640625 C 231.632812 71.59375 231.679688 71.445312 231.726562 71.425781 Z M 251.4375 55.21875 C 250.265625 55.21875 249.3125 54.03125 249.3125 52.570312 C 249.3125 51.105469 250.265625 49.917969 251.4375 49.917969 C 252.609375 49.917969 253.5625 51.105469 253.5625 52.570312 C 253.5625 54.03125 252.609375 55.21875 251.4375 55.21875 Z M 251.4375 55.605469 C 252.820312 55.605469 253.945312 54.242188 253.945312 52.570312 C 253.945312 50.894531 252.820312 49.535156 251.4375 49.535156 C 250.054688 49.535156 248.929688 50.894531 248.929688 52.570312 C 248.929688 54.242188 250.054688 55.605469 251.4375 55.605469 Z M 261.601562 142.011719 C 261.601562 142.011719 263.464844 141.203125 264.785156 141.570312 L 269.226562 137.859375 L 269.980469 138.898438 L 259.765625 146.902344 C 259.765625 146.902344 258.335938 145.878906 261.046875 142.671875 C 261.242188 142.441406 261.425781 142.222656 261.601562 142.011719 Z M 239.269531 145.9375 L 252.242188 146.207031 L 252.316406 144.925781 L 246.53125 144.984375 C 245.738281 143.867188 243.785156 143.3125 243.785156 143.3125 C 243.515625 143.363281 243.234375 143.417969 242.9375 143.472656 C 238.808594 144.242188 239.269531 145.9375 239.269531 145.9375 " fill-opacity="1" fill-rule="nonzero"/></g><path fill="#388e3c" d="M 256.519531 45.113281 C 256.414062 45.074219 256.375 45.023438 256.351562 44.96875 C 256.328125 44.914062 256.304688 44.859375 256.277344 44.804688 L 256.128906 44.476562 C 256.023438 44.261719 255.917969 44.046875 255.789062 43.84375 C 255.527344 43.441406 255.222656 43.070312 254.890625 42.734375 C 254.554688 42.398438 254.226562 42.058594 253.839844 41.777344 C 253.652344 41.625 253.445312 41.511719 253.25 41.371094 C 253.148438 41.300781 253.042969 41.246094 252.941406 41.179688 L 252.785156 41.082031 C 252.734375 41.050781 252.6875 41.003906 252.675781 40.882812 C 252.769531 40.808594 252.835938 40.816406 252.894531 40.835938 L 253.074219 40.898438 C 253.195312 40.941406 253.320312 40.976562 253.429688 41.039062 C 253.65625 41.148438 253.886719 41.261719 254.09375 41.40625 C 254.527344 41.675781 254.929688 42.003906 255.269531 42.386719 C 255.613281 42.769531 255.882812 43.207031 256.109375 43.660156 C 256.226562 43.882812 256.335938 44.113281 256.433594 44.347656 C 256.472656 44.46875 256.519531 44.585938 256.546875 44.710938 C 256.5625 44.773438 256.574219 44.835938 256.589844 44.898438 C 256.601562 44.957031 256.59375 45.03125 256.519531 45.113281 Z M 261.589844 36.128906 C 259.65625 32.894531 254.316406 33.589844 252.953125 35.066406 C 251.882812 36.226562 252.03125 39.320312 252.148438 40.597656 C 249.394531 40.082031 246.035156 41.355469 244.195312 44.8125 C 243.828125 45.507812 243.609375 46.101562 245.066406 46.421875 C 245.066406 46.421875 247.28125 47.21875 249.65625 48.285156 C 249.671875 48.125 249.722656 47.96875 249.816406 47.828125 C 250.113281 47.378906 250.730469 46.703125 251.453125 47.40625 C 251.933594 47.875 252.085938 48.707031 251.992188 49.417969 C 253.398438 50.160156 254.601562 50.9375 255.105469 51.632812 C 255.222656 51.792969 255.351562 51.863281 255.484375 51.792969 C 256.027344 51.503906 257.292969 48.609375 256.726562 45.542969 C 263.660156 46.183594 263.371094 39.101562 261.589844 36.128906 Z M 231.539062 71.777344 C 231.574219 71.6875 231.621094 71.570312 231.65625 71.507812 C 231.683594 71.460938 231.742188 71.445312 231.789062 71.472656 L 238.988281 75.902344 C 239.042969 75.9375 239.113281 75.9375 239.167969 75.898438 C 239.300781 75.8125 239.558594 75.640625 239.671875 75.542969 C 239.746094 75.480469 239.71875 75.601562 239.71875 75.601562 C 239.71875 75.601562 239.691406 75.75 239.667969 75.882812 C 239.660156 75.933594 239.632812 75.984375 239.589844 76.019531 L 239.140625 76.40625 C 239.074219 76.460938 238.976562 76.472656 238.902344 76.425781 C 238.824219 76.378906 238.710938 76.3125 238.570312 76.226562 C 238.578125 76.027344 238.5 75.84375 238.375 75.765625 C 238.117188 75.601562 237.828125 75.753906 237.828125 75.753906 L 236.960938 75.148438 C 236.960938 75.148438 237.003906 74.40625 236.355469 74.53125 C 236.355469 74.53125 236.273438 74.625 236.164062 74.765625 C 236.113281 74.730469 236.058594 74.699219 236.007812 74.667969 C 236.117188 74.367188 236.03125 74.089844 235.492188 73.996094 C 235.492188 73.996094 235.355469 74.054688 235.171875 74.15625 C 235.046875 74.082031 234.921875 74.007812 234.800781 73.929688 C 234.839844 73.65625 234.714844 73.375 234.089844 73.375 C 234.089844 73.375 234.050781 73.398438 233.996094 73.4375 C 232.875 72.753906 231.925781 72.167969 231.609375 71.976562 C 231.539062 71.933594 231.511719 71.851562 231.539062 71.777344 Z M 244.347656 50.777344 C 244.292969 50.53125 244.429688 50.292969 244.652344 50.246094 C 244.871094 50.195312 245.097656 50.355469 245.148438 50.597656 C 245.203125 50.84375 245.066406 51.082031 244.847656 51.132812 C 244.625 51.179688 244.402344 51.019531 244.347656 50.777344 Z M 244.625 53.519531 C 244.664062 53.5 244.703125 53.484375 244.742188 53.460938 C 244.820312 53.410156 244.902344 53.351562 244.996094 53.328125 C 245.085938 53.292969 245.195312 53.3125 245.304688 53.339844 C 245.359375 53.355469 245.417969 53.375 245.472656 53.414062 C 245.496094 53.4375 245.519531 53.460938 245.539062 53.488281 L 245.566406 53.535156 C 245.574219 53.550781 245.570312 53.578125 245.503906 53.660156 C 245.417969 53.722656 245.398438 53.742188 245.394531 53.742188 C 245.386719 53.742188 245.378906 53.746094 245.371094 53.75 L 245.332031 53.769531 C 245.304688 53.78125 245.289062 53.78125 245.257812 53.789062 C 245.203125 53.804688 245.148438 53.835938 245.082031 53.828125 C 245.011719 53.832031 244.933594 53.816406 244.855469 53.8125 C 244.816406 53.816406 244.777344 53.824219 244.742188 53.832031 C 244.722656 53.835938 244.703125 53.835938 244.679688 53.832031 L 244.644531 53.824219 C 244.632812 53.820312 244.617188 53.800781 244.570312 53.722656 C 244.542969 53.632812 244.542969 53.605469 244.550781 53.597656 L 244.574219 53.566406 C 244.589844 53.546875 244.605469 53.53125 244.625 53.519531 Z M 246.085938 54.734375 C 246.15625 54.695312 246.230469 54.65625 246.296875 54.609375 C 246.433594 54.511719 246.554688 54.402344 246.679688 54.304688 C 246.796875 54.199219 246.9375 54.125 247.058594 54.027344 L 247.234375 53.878906 C 247.261719 53.851562 247.300781 53.832031 247.328125 53.804688 L 247.378906 53.765625 C 247.390625 53.753906 247.421875 53.75 247.527344 53.78125 C 247.609375 53.847656 247.617188 53.878906 247.609375 53.902344 L 247.589844 53.972656 C 247.578125 54.023438 247.558594 54.066406 247.539062 54.109375 C 247.5 54.199219 247.4375 54.269531 247.378906 54.347656 C 247.257812 54.492188 247.128906 54.632812 246.96875 54.726562 C 246.8125 54.820312 246.636719 54.882812 246.46875 54.941406 C 246.382812 54.972656 246.304688 55.007812 246.21875 55.039062 C 246.175781 55.050781 246.132812 55.0625 246.085938 55.066406 L 246.019531 55.074219 C 245.996094 55.074219 245.964844 55.058594 245.914062 54.980469 C 245.902344 54.886719 245.914062 54.855469 245.929688 54.84375 L 245.980469 54.800781 C 246.015625 54.773438 246.050781 54.753906 246.085938 54.734375 Z M 244.230469 49.359375 C 244.214844 49.363281 244.195312 49.34375 244.128906 49.257812 C 244.09375 49.160156 244.105469 49.125 244.121094 49.113281 L 244.167969 49.070312 C 244.199219 49.046875 244.230469 49.019531 244.265625 49.003906 C 244.335938 48.964844 244.410156 48.941406 244.484375 48.921875 C 244.636719 48.882812 244.792969 48.855469 244.941406 48.882812 C 245.09375 48.90625 245.230469 48.972656 245.363281 49.03125 L 245.5625 49.113281 C 245.59375 49.128906 245.625 49.148438 245.652344 49.171875 L 245.695312 49.207031 C 245.710938 49.222656 245.714844 49.25 245.695312 49.339844 C 245.644531 49.421875 245.621094 49.4375 245.601562 49.4375 L 245.550781 49.441406 C 245.519531 49.4375 245.484375 49.433594 245.453125 49.429688 C 245.390625 49.414062 245.332031 49.398438 245.269531 49.390625 C 245.140625 49.382812 245.015625 49.394531 244.894531 49.394531 C 244.777344 49.402344 244.664062 49.371094 244.546875 49.371094 L 244.371094 49.371094 Z M 263.019531 137.082031 L 263.136719 137 C 263.214844 136.953125 263.285156 136.890625 263.359375 136.835938 C 263.511719 136.726562 263.65625 136.609375 263.796875 136.492188 C 264.078125 136.242188 264.328125 135.972656 264.582031 135.699219 C 264.832031 135.421875 265.085938 135.140625 265.3125 134.835938 C 265.421875 134.679688 265.519531 134.519531 265.617188 134.355469 C 265.667969 134.277344 265.71875 134.195312 265.769531 134.113281 L 265.851562 133.996094 C 265.878906 133.957031 265.917969 133.925781 266.023438 133.917969 C 266.089844 134 266.089844 134.054688 266.074219 134.101562 C 266.058594 134.148438 266.042969 134.199219 266.027344 134.242188 C 265.992188 134.335938 265.953125 134.429688 265.910156 134.515625 C 265.820312 134.691406 265.71875 134.863281 265.625 135.035156 C 265.433594 135.382812 265.222656 135.722656 264.96875 136.035156 C 264.71875 136.347656 264.402344 136.609375 264.078125 136.847656 C 263.910156 136.960938 263.742188 137.074219 263.558594 137.160156 C 263.46875 137.207031 263.378906 137.25 263.277344 137.277344 L 263.132812 137.324219 C 263.089844 137.34375 263.03125 137.34375 262.945312 137.269531 C 262.949219 137.148438 262.980469 137.109375 263.019531 137.082031 Z M 248.4375 142.480469 L 248.574219 142.476562 C 248.667969 142.476562 248.757812 142.472656 248.847656 142.464844 C 248.9375 142.457031 249.023438 142.445312 249.113281 142.445312 C 249.203125 142.433594 249.289062 142.417969 249.378906 142.402344 C 249.726562 142.34375 250.058594 142.230469 250.390625 142.101562 C 250.71875 141.972656 251.046875 141.820312 251.355469 141.625 C 251.503906 141.523438 251.648438 141.410156 251.785156 141.289062 L 251.996094 141.113281 L 252.105469 141.027344 C 252.140625 141 252.1875 140.980469 252.289062 141.003906 C 252.332031 141.101562 252.316406 141.152344 252.289062 141.195312 C 252.261719 141.234375 252.234375 141.277344 252.203125 141.3125 C 252.148438 141.394531 252.082031 141.464844 252.011719 141.535156 C 251.875 141.671875 251.726562 141.796875 251.574219 141.921875 C 251.277344 142.175781 250.953125 142.40625 250.589844 142.570312 C 250.230469 142.746094 249.828125 142.824219 249.429688 142.851562 C 249.332031 142.855469 249.230469 142.867188 249.132812 142.867188 C 249.03125 142.863281 248.933594 142.851562 248.832031 142.84375 C 248.734375 142.839844 248.636719 142.8125 248.542969 142.789062 L 248.398438 142.746094 C 248.351562 142.738281 248.304688 142.707031 248.277344 142.597656 C 248.34375 142.5 248.390625 142.480469 248.4375 142.480469 Z M 241.390625 73.332031 C 241.375 73.660156 241.367188 73.988281 241.335938 74.316406 C 241.308594 74.640625 241.242188 74.964844 241.183594 75.285156 C 241.152344 75.449219 241.125 75.609375 241.085938 75.769531 C 241.066406 75.851562 241.042969 75.929688 241.019531 76.007812 L 240.984375 76.128906 C 240.972656 76.167969 240.945312 76.207031 240.835938 76.234375 C 240.734375 76.179688 240.71875 76.136719 240.71875 76.09375 L 240.710938 75.96875 C 240.707031 75.886719 240.703125 75.804688 240.707031 75.722656 C 240.710938 75.558594 240.722656 75.394531 240.734375 75.230469 C 240.757812 74.902344 240.773438 74.574219 240.828125 74.25 C 240.878906 73.925781 240.953125 73.605469 241.019531 73.285156 L 241.101562 72.800781 C 241.117188 72.71875 241.132812 72.636719 241.15625 72.558594 L 241.191406 72.4375 C 241.203125 72.398438 241.230469 72.363281 241.328125 72.332031 C 241.417969 72.386719 241.433594 72.429688 241.4375 72.46875 L 241.441406 72.59375 C 241.441406 72.675781 241.4375 72.757812 241.433594 72.839844 Z M 238.554688 72.101562 C 238.476562 72.21875 238.371094 72.316406 238.246094 72.398438 C 238.1875 72.441406 238.113281 72.476562 238.042969 72.503906 C 238.003906 72.519531 237.964844 72.527344 237.925781 72.539062 C 237.902344 72.542969 237.902344 72.546875 237.898438 72.550781 C 237.898438 72.550781 237.894531 72.554688 237.890625 72.554688 C 237.871094 72.566406 237.828125 72.644531 237.789062 72.75 C 237.753906 72.855469 237.707031 72.976562 237.644531 73.105469 C 237.574219 73.234375 237.46875 73.386719 237.296875 73.472656 C 237.25 73.492188 237.207031 73.515625 237.164062 73.527344 C 237.117188 73.539062 237.074219 73.542969 237.027344 73.550781 C 236.941406 73.554688 236.855469 73.546875 236.777344 73.53125 C 236.625 73.5 236.5 73.441406 236.375 73.382812 L 236.359375 73.375 C 236.289062 73.34375 236.242188 73.265625 236.25 73.183594 C 236.261719 73.074219 236.277344 72.964844 236.296875 72.855469 C 236.308594 72.800781 236.316406 72.746094 236.332031 72.691406 C 236.339844 72.664062 236.339844 72.636719 236.355469 72.609375 C 236.371094 72.582031 236.40625 72.558594 236.480469 72.53125 C 236.554688 72.5625 236.585938 72.589844 236.601562 72.617188 C 236.613281 72.644531 236.613281 72.675781 236.621094 72.703125 C 236.628906 72.757812 236.636719 72.8125 236.644531 72.867188 C 236.652344 72.921875 236.652344 72.980469 236.65625 73.035156 C 236.828125 73.082031 236.988281 73.085938 237.050781 73.027344 C 237.09375 72.996094 237.140625 72.945312 237.195312 72.855469 C 237.25 72.769531 237.296875 72.664062 237.367188 72.542969 C 237.398438 72.484375 237.441406 72.421875 237.492188 72.355469 C 237.523438 72.324219 237.554688 72.289062 237.589844 72.261719 C 237.632812 72.230469 237.675781 72.199219 237.726562 72.179688 C 237.753906 72.171875 237.78125 72.167969 237.808594 72.160156 C 237.832031 72.15625 237.863281 72.148438 237.871094 72.148438 C 237.890625 72.148438 237.914062 72.148438 237.9375 72.144531 C 237.980469 72.136719 238.023438 72.117188 238.066406 72.097656 C 238.152344 72.050781 238.230469 71.980469 238.304688 71.902344 L 238.417969 71.777344 C 238.464844 71.738281 238.464844 71.683594 238.625 71.6875 C 238.734375 71.804688 238.675781 71.859375 238.652344 71.921875 C 238.628906 71.984375 238.59375 72.046875 238.554688 72.101562 Z M 244.0625 72.265625 C 244.140625 72.335938 244.148438 72.390625 244.144531 72.441406 L 244.125 72.59375 C 244.109375 72.695312 244.089844 72.792969 244.066406 72.894531 L 243.933594 73.484375 C 243.855469 73.882812 243.785156 74.285156 243.691406 74.675781 C 243.601562 75.074219 243.472656 75.457031 243.351562 75.84375 C 243.292969 76.039062 243.234375 76.230469 243.164062 76.421875 C 243.132812 76.519531 243.09375 76.613281 243.054688 76.707031 L 242.996094 76.847656 C 242.976562 76.894531 242.941406 76.9375 242.824219 76.960938 C 242.738281 76.886719 242.726562 76.832031 242.734375 76.78125 L 242.753906 76.628906 C 242.765625 76.527344 242.777344 76.425781 242.796875 76.324219 C 242.832031 76.125 242.875 75.925781 242.917969 75.730469 C 243.003906 75.332031 243.078125 74.9375 243.195312 74.546875 C 243.308594 74.160156 243.445312 73.777344 243.574219 73.390625 L 243.746094 72.808594 C 243.777344 72.710938 243.808594 72.617188 243.847656 72.519531 L 243.902344 72.378906 C 243.921875 72.332031 243.960938 72.289062 244.0625 72.265625 Z M 253.621094 127.476562 C 253.632812 127.21875 253.644531 126.960938 253.664062 126.707031 C 253.683594 126.195312 253.714844 125.683594 253.726562 125.167969 C 253.753906 124.140625 253.757812 123.113281 253.777344 122.085938 L 253.839844 118.996094 C 253.839844 118.480469 253.832031 117.964844 253.828125 117.449219 C 253.828125 117.191406 253.828125 116.933594 253.832031 116.675781 L 253.839844 116.289062 C 253.84375 116.160156 253.863281 116.03125 253.949219 115.898438 C 254.046875 116.023438 254.078125 116.152344 254.085938 116.28125 L 254.117188 116.667969 C 254.136719 116.925781 254.148438 117.183594 254.160156 117.441406 L 254.210938 118.988281 C 254.253906 120.023438 254.28125 121.054688 254.289062 122.089844 C 254.292969 123.121094 254.246094 124.15625 254.175781 125.191406 C 254.144531 125.707031 254.101562 126.226562 254.042969 126.738281 C 254.007812 126.996094 253.964844 127.253906 253.925781 127.511719 C 253.90625 127.640625 253.875 127.769531 253.851562 127.894531 C 253.828125 128.023438 253.785156 128.148438 253.664062 128.257812 C 253.578125 128.113281 253.574219 127.984375 253.585938 127.855469 C 253.597656 127.730469 253.613281 127.601562 253.621094 127.476562 Z M 240.96875 91.144531 C 240.921875 91.144531 240.871094 91.132812 240.820312 91.117188 C 240.945312 90.832031 241.070312 90.546875 241.179688 90.257812 C 241.316406 89.90625 241.4375 89.554688 241.5625 89.199219 C 241.769531 88.980469 241.984375 88.761719 242.203125 88.554688 C 242.316406 88.441406 242.429688 88.328125 242.539062 88.210938 C 242.589844 88.15625 242.636719 88.101562 242.683594 88.042969 C 243.292969 88.4375 244.566406 89.265625 245.84375 90.101562 C 245.839844 90.113281 245.832031 90.121094 245.828125 90.132812 C 245.78125 90.25 245.738281 90.367188 245.6875 90.484375 C 245.578125 90.714844 245.464844 90.941406 245.371094 91.175781 C 245.273438 91.40625 245.21875 91.65625 245.152344 91.898438 C 245.121094 92.019531 245.085938 92.140625 245.0625 92.265625 C 245.054688 92.304688 245.050781 92.339844 245.046875 92.378906 C 244.746094 92.359375 244.449219 92.320312 244.160156 92.265625 C 243.691406 92.15625 243.238281 92.015625 242.824219 91.777344 L 242.523438 91.585938 C 242.429688 91.511719 242.34375 91.429688 242.25 91.355469 C 242.203125 91.316406 242.15625 91.277344 242.109375 91.238281 L 241.984375 91.105469 L 241.871094 90.992188 C 241.878906 90.980469 241.886719 90.96875 241.898438 90.960938 L 242.046875 90.753906 C 242.09375 90.6875 242.15625 90.625 242.097656 90.488281 C 241.929688 90.472656 241.882812 90.535156 241.820312 90.585938 L 241.640625 90.746094 C 241.519531 90.847656 241.40625 90.980469 241.300781 91.042969 C 241.195312 91.109375 241.085938 91.152344 240.96875 91.144531 Z M 245.613281 92.390625 C 245.550781 92.394531 245.488281 92.390625 245.425781 92.390625 C 245.484375 92.277344 245.53125 92.160156 245.582031 92.046875 C 245.617188 91.960938 245.65625 91.878906 245.691406 91.792969 C 245.773438 91.855469 245.859375 91.886719 245.949219 91.90625 C 246.074219 91.933594 246.199219 91.976562 246.324219 92.019531 C 246.53125 92.085938 246.738281 92.15625 246.945312 92.226562 C 246.929688 92.230469 246.917969 92.230469 246.910156 92.230469 L 246.722656 92.257812 L 246.351562 92.3125 C 246.109375 92.351562 245.863281 92.382812 245.613281 92.390625 Z M 240.273438 91.160156 C 240.238281 91.261719 240.277344 91.375 240.367188 91.429688 C 240.476562 91.496094 240.558594 91.523438 240.664062 91.554688 C 240.761719 91.582031 240.867188 91.59375 240.972656 91.589844 C 241.1875 91.585938 241.394531 91.492188 241.546875 91.367188 C 241.601562 91.316406 241.648438 91.265625 241.691406 91.21875 L 241.738281 91.304688 L 241.847656 91.472656 C 241.890625 91.523438 241.933594 91.574219 241.980469 91.621094 C 242.070312 91.71875 242.15625 91.824219 242.257812 91.914062 L 242.578125 92.160156 C 243.027344 92.460938 243.535156 92.683594 244.066406 92.765625 C 244.59375 92.851562 245.128906 92.828125 245.644531 92.761719 C 245.773438 92.75 245.902344 92.730469 246.03125 92.707031 C 246.160156 92.6875 246.289062 92.667969 246.414062 92.636719 C 246.542969 92.613281 246.667969 92.574219 246.789062 92.535156 L 246.972656 92.46875 C 247.035156 92.445312 247.082031 92.40625 247.125 92.300781 C 247.117188 92.292969 247.105469 92.289062 247.097656 92.28125 C 247.582031 92.449219 248.070312 92.628906 248.554688 92.808594 C 249.539062 93.183594 250.515625 93.589844 251.503906 93.96875 L 254.464844 95.117188 L 255.929688 95.71875 C 256.175781 95.820312 256.421875 95.921875 256.667969 96.015625 L 257.039062 96.15625 C 257.164062 96.203125 257.296875 96.234375 257.453125 96.203125 C 257.371094 96.0625 257.257812 95.988281 257.140625 95.929688 L 256.78125 95.753906 C 256.546875 95.636719 256.304688 95.527344 256.0625 95.414062 L 254.609375 94.773438 C 253.644531 94.335938 252.671875 93.90625 251.695312 93.496094 C 250.710938 93.09375 249.714844 92.726562 248.707031 92.386719 C 248.203125 92.21875 247.699219 92.046875 247.179688 91.910156 C 246.925781 91.832031 246.664062 91.777344 246.402344 91.71875 C 246.269531 91.691406 246.140625 91.660156 246.003906 91.644531 C 245.921875 91.632812 245.839844 91.628906 245.75 91.640625 C 245.792969 91.542969 245.828125 91.445312 245.855469 91.339844 C 245.929688 91.101562 245.976562 90.851562 246.039062 90.605469 C 246.066406 90.5 246.097656 90.394531 246.128906 90.289062 C 246.667969 90.644531 247.199219 90.992188 247.667969 91.308594 C 247.710938 91.335938 247.761719 91.351562 247.8125 91.351562 C 247.832031 91.351562 247.855469 91.347656 247.875 91.339844 C 252.585938 90.121094 260.367188 83.648438 260.710938 82.042969 C 263.007812 71.308594 260.855469 63.089844 260.832031 63.007812 C 260.796875 62.871094 260.65625 62.792969 260.519531 62.828125 C 260.382812 62.863281 260.300781 63.003906 260.335938 63.140625 C 260.359375 63.222656 262.476562 71.332031 260.210938 81.933594 C 259.90625 83.363281 252.394531 89.574219 247.859375 90.816406 C 246.101562 89.648438 243.582031 88.015625 242.820312 87.523438 C 245.667969 83.660156 254.734375 78.101562 254.824219 78.046875 C 254.945312 77.972656 254.984375 77.8125 254.910156 77.691406 C 254.835938 77.574219 254.679688 77.535156 254.558594 77.609375 C 254.464844 77.664062 253.878906 78.027344 252.996094 78.597656 L 252.023438 66.515625 C 252.011719 66.375 251.890625 66.269531 251.746094 66.28125 C 251.605469 66.292969 251.5 66.417969 251.511719 66.558594 L 252.5 78.835938 C 252.503906 78.859375 252.507812 78.886719 252.515625 78.90625 C 249.550781 80.855469 244.207031 84.589844 242.242188 87.445312 C 242.203125 87.503906 242.191406 87.574219 242.203125 87.640625 C 242.21875 87.710938 242.257812 87.769531 242.316406 87.808594 C 242.320312 87.808594 242.367188 87.839844 242.453125 87.894531 C 242.410156 87.925781 242.371094 87.957031 242.332031 87.988281 C 242.207031 88.089844 242.085938 88.195312 241.96875 88.304688 C 241.730469 88.523438 241.488281 88.734375 241.242188 88.9375 C 241.226562 88.953125 241.214844 88.972656 241.203125 88.988281 L 241.195312 89.011719 C 241.027344 89.359375 240.863281 89.710938 240.707031 90.0625 C 240.550781 90.414062 240.414062 90.777344 240.28125 91.140625 Z M 254.09375 58.574219 C 253.960938 58.65625 253.816406 58.722656 253.691406 58.820312 L 253.308594 59.101562 C 253.175781 59.191406 253.058594 59.300781 252.941406 59.40625 C 252.824219 59.515625 252.699219 59.617188 252.578125 59.722656 L 252.230469 60.058594 L 252.058594 60.230469 C 252 60.289062 251.929688 60.332031 251.796875 60.328125 C 251.765625 60.203125 251.800781 60.121094 251.851562 60.058594 L 252 59.855469 C 252.101562 59.726562 252.195312 59.582031 252.304688 59.460938 C 252.421875 59.339844 252.535156 59.214844 252.652344 59.097656 C 252.769531 58.980469 252.886719 58.855469 253.019531 58.753906 C 253.523438 58.304688 254.101562 57.933594 254.726562 57.660156 C 255.359375 57.410156 256.039062 57.277344 256.710938 57.253906 C 257.050781 57.234375 257.386719 57.253906 257.722656 57.292969 C 257.890625 57.320312 258.054688 57.34375 258.21875 57.394531 C 258.300781 57.417969 258.378906 57.445312 258.460938 57.472656 C 258.539062 57.5 258.617188 57.550781 258.664062 57.664062 C 258.554688 57.726562 258.472656 57.726562 258.394531 57.710938 C 258.316406 57.695312 258.238281 57.683594 258.160156 57.675781 C 258.003906 57.652344 257.84375 57.640625 257.6875 57.621094 C 257.371094 57.601562 257.054688 57.585938 256.738281 57.625 C 256.105469 57.695312 255.5 57.882812 254.925781 58.132812 C 254.644531 58.273438 254.359375 58.402344 254.09375 58.574219 Z M 250.832031 56.167969 L 250.722656 56.277344 C 250.683594 56.3125 250.632812 56.339844 250.53125 56.316406 C 250.492188 56.21875 250.503906 56.164062 250.527344 56.121094 L 250.605469 55.992188 C 250.65625 55.910156 250.714844 55.832031 250.761719 55.746094 C 250.863281 55.578125 250.972656 55.417969 251.054688 55.238281 C 251.226562 54.886719 251.34375 54.515625 251.449219 54.144531 C 251.554688 53.773438 251.664062 53.402344 251.722656 53.019531 C 251.753906 52.828125 251.773438 52.632812 251.796875 52.441406 L 251.828125 52.148438 C 251.832031 52.097656 251.835938 52.050781 251.839844 52.003906 C 251.84375 51.953125 251.859375 51.90625 251.960938 51.839844 C 252.070312 51.878906 252.101562 51.929688 252.109375 51.980469 C 252.121094 52.03125 252.128906 52.082031 252.140625 52.132812 C 252.15625 52.238281 252.167969 52.339844 252.175781 52.445312 C 252.191406 52.652344 252.1875 52.863281 252.171875 53.070312 C 252.140625 53.484375 252.082031 53.90625 251.9375 54.300781 C 251.800781 54.695312 251.605469 55.070312 251.378906 55.417969 C 251.273438 55.597656 251.152344 55.765625 251.035156 55.933594 C 250.976562 56.019531 250.902344 56.09375 250.832031 56.167969 Z M 256.386719 59.808594 C 256.355469 59.667969 256.21875 59.582031 256.078125 59.613281 C 256.035156 59.621094 251.777344 60.605469 251.265625 64.691406 C 251.25 64.832031 251.347656 64.960938 251.488281 64.976562 C 251.5 64.980469 251.507812 64.980469 251.519531 64.980469 C 251.648438 64.980469 251.757812 64.886719 251.773438 64.753906 C 252.242188 61.023438 256.148438 60.121094 256.191406 60.113281 C 256.328125 60.082031 256.414062 59.945312 256.386719 59.808594 " fill-opacity="1" fill-rule="nonzero"/><path fill="#4caf50" d="M 257.046875 34.152344 L 257.078125 34.132812 C 257.097656 34.125 257.117188 34.117188 257.136719 34.113281 C 257.179688 34.113281 257.21875 34.109375 257.257812 34.105469 C 257.339844 34.089844 257.425781 34.066406 257.507812 34.070312 C 257.589844 34.066406 257.664062 34.109375 257.738281 34.144531 C 257.777344 34.164062 257.8125 34.183594 257.847656 34.210938 C 257.863281 34.222656 257.878906 34.242188 257.894531 34.257812 L 257.917969 34.289062 C 257.925781 34.296875 257.929688 34.324219 257.90625 34.425781 C 257.863281 34.523438 257.851562 34.542969 257.839844 34.546875 L 257.808594 34.558594 C 257.789062 34.566406 257.765625 34.574219 257.75 34.578125 C 257.707031 34.585938 257.671875 34.585938 257.636719 34.585938 C 257.5625 34.589844 257.488281 34.601562 257.421875 34.574219 C 257.355469 34.550781 257.289062 34.507812 257.222656 34.476562 C 257.1875 34.460938 257.152344 34.457031 257.117188 34.445312 C 257.097656 34.441406 257.082031 34.433594 257.0625 34.421875 L 257.039062 34.398438 C 257.027344 34.394531 257.019531 34.367188 257.015625 34.273438 C 257.027344 34.183594 257.035156 34.160156 257.046875 34.152344 Z M 258.484375 34.605469 C 258.511719 34.71875 258.550781 34.75 258.59375 34.765625 L 258.722656 34.8125 C 258.804688 34.839844 258.886719 34.875 258.964844 34.910156 C 259.046875 34.945312 259.125 34.984375 259.207031 35.015625 L 259.433594 35.136719 C 259.738281 35.308594 260.007812 35.523438 260.269531 35.75 C 260.53125 35.976562 260.789062 36.222656 261.015625 36.5 C 261.121094 36.644531 261.222656 36.792969 261.3125 36.945312 L 261.457031 37.175781 L 261.53125 37.289062 C 261.554688 37.328125 261.59375 37.355469 261.695312 37.367188 C 261.765625 37.289062 261.769531 37.234375 261.757812 37.1875 C 261.742188 37.140625 261.730469 37.09375 261.714844 37.050781 C 261.683594 36.960938 261.644531 36.871094 261.601562 36.785156 C 261.519531 36.617188 261.417969 36.453125 261.320312 36.289062 C 261.125 35.960938 260.898438 35.644531 260.617188 35.371094 C 260.34375 35.089844 259.992188 34.890625 259.636719 34.730469 L 259.363281 34.621094 C 259.269531 34.59375 259.171875 34.574219 259.078125 34.550781 C 258.984375 34.523438 258.886719 34.511719 258.789062 34.507812 L 258.644531 34.5 C 258.59375 34.496094 258.542969 34.507812 258.484375 34.605469 " fill-opacity="1" fill-rule="nonzero"/><path fill="#ffffff" d="M 232.597656 71.882812 L 237.820312 75.066406 L 238.480469 74.683594 L 233.371094 71.695312 L 232.597656 71.882812 " fill-opacity="1" fill-rule="nonzero"/></svg>